<svg version="1.1" id="Layer_1" xmlns="http://www.w3.org/2000/svg" xmlns:xlink="http://www.w3.org/1999/xlink" x="0px" y="0px" viewBox="0 0 511.941 511.941" style="enable-background:new 0 0 511.941 511.941;" xml:space="preserve">
<g>
	<g>
		<path style="fill:#4A66A0;" d="M81.649,195.735h30.118v-90.353H81.649c-24.95,0-45.176,20.226-45.176,45.176v0&#10;&#9;&#9;&#9;C36.472,175.509,56.699,195.735,81.649,195.735z"/>
		<circle style="fill:#F9475E;" cx="66.59" cy="30.088" r="22.588"/>
		<path style="fill:#687DAA;" d="M428.002,195.735h-30.118v-90.353h30.118c24.95,0,45.176,20.226,45.176,45.176v0&#10;&#9;&#9;&#9;C473.178,175.509,452.952,195.735,428.002,195.735z"/>
		<path style="fill:#F3F5FC;" d="M330.115,37.501v30.23h-150.58v-30.23c0-16.57,13.43-30,30-30h90.58&#10;&#9;&#9;&#9;C316.685,7.501,330.115,20.931,330.115,37.501z"/>
		<path style="fill:#E8ECF9;" d="M236.085,27.651v9.97c0,0-3.18,14.17-6.89,30.11h-49.66v-30.23c0-16.57,13.43-30,30-30h35.89&#10;&#9;&#9;&#9;C235.675,12.151,236.085,27.651,236.085,27.651z"/>
		<rect x="217.175" y="218.321" style="fill:#687DAA;" width="75.3" height="135.53"/>
		<path style="fill:#4A66A0;" d="M240.055,263.501v90.35h-22.88V230.06C228.895,246.551,240.055,263.501,240.055,263.501z"/>
		<path style="fill:#F3F5FC;" d="M412.945,413.62v75.82c0,8.28-6.72,15-15,15h-97.94l-46.48-13.51l-43.88,13.51h-97.94&#10;&#9;&#9;&#9;c-8.28,0-15-6.72-15-15v-75.82c0-58.94,42.49-107.94,98.49-118.07c4.02-0.73,8.15,0.25,11.44,2.66c2.3,1.69,5.67,3.6,10.54,5.32&#10;&#9;&#9;&#9;l5.8,7.31l17.07-2.77c0.01,0,0.01,0,0.01,0c4.41,0.39,9.32,0.61,14.77,0.61c28.62,0,42.13-6.04,48.19-10.47&#10;&#9;&#9;&#9;c3.29-2.41,7.42-3.39,11.44-2.66C370.455,305.681,412.945,354.681,412.945,413.62z"/>
		<path style="fill:#E8ECF9;" d="M192.065,411.271v83.23c0,0,0.31,6.35,8.03,9.94h-88.39c-8.28,0-15-6.72-15-15v-75.82&#10;&#9;&#9;&#9;c0-58.94,42.49-107.94,98.49-118.07c4.02-0.73,8.15,0.25,11.44,2.66c4.9,3.59,14.69,8.22,33.41,9.86&#10;&#9;&#9;&#9;C239.165,308.421,192.065,327.291,192.065,411.271z"/>
		<path style="fill:#93BCE8;" d="M412.945,97.62v105.88c0,33.14-26.87,60-60,60h-112.89l-16.91-4.4l-5.97,4.4h-60.47&#10;&#9;&#9;&#9;c-33.13,0-60-26.86-60-60v-7.79l21.42-45.29l-21.42-45.04v-7.76c0-33.14,26.87-60,60-60h22.83l17.61,8.2l38.94-8.2h116.86&#10;&#9;&#9;&#9;C386.075,37.62,412.945,64.481,412.945,97.62z"/>
		<path style="fill:#68A2DF;" d="M240.055,263.501h-83.35c-33.13,0-60-26.86-60-60V97.62c0-33.14,26.87-60,60-60h79.38&#10;&#9;&#9;&#9;c-27.75,11-47.38,38.08-47.38,69.75v91.37C188.705,229.671,211.345,253.451,240.055,263.501z"/>
		<path style="fill:#F3F5FC;" d="M367.765,150.56c0,18.71-7.58,35.65-19.85,47.91c-12.26,12.26-29.2,19.85-47.91,19.85h-90.36&#10;&#9;&#9;&#9;c-6.43,0-12.65-0.9-18.54-2.57l-13.41-8.74v-99.57l14.37-22.34c5.6-1.51,11.5-2.31,17.58-2.31h90.36&#10;&#9;&#9;&#9;C337.425,82.791,367.765,113.131,367.765,150.56z"/>
		<path style="fill:#E8ECF9;" d="M188.705,198.741c0,5.95,0.84,11.64,2.4,17.01c-28.41-8.06-49.22-34.2-49.22-65.19&#10;&#9;&#9;&#9;c0-18.71,7.58-35.66,19.85-47.92c8.28-8.28,18.68-14.43,30.33-17.54c-2.18,7.03-3.36,14.51-3.36,22.27V198.741z"/>
		<circle style="fill:#FF6E80;" cx="443.061" cy="30.088" r="22.588"/>
		<circle style="fill:#F9475E;" cx="141.884" cy="459.265" r="15.059"/>
		<circle style="fill:#FF6E80;" cx="228.472" cy="353.853" r="15.059"/>
		<circle style="fill:#FF6E80;" cx="281.178" cy="376.441" r="15.059"/>
		<circle style="fill:#FF6E80;" cx="367.766" cy="451.735" r="15.059"/>
		<path style="fill:#93BCE8;" d="M300.002,504.441h-90.353v-60.353c0-16.569,13.431-30,30-30h30.353c16.569,0,30,13.431,30,30&#10;&#9;&#9;&#9;V504.441z"/>
	</g>
	<g>
		
			<line style="fill:none;stroke:#000000;stroke-width:15;stroke-linecap:round;stroke-linejoin:round;stroke-miterlimit:10;" x1="66.59" y1="107.183" x2="66.59" y2="55.439"/>
		<path style="fill:none;stroke:#000000;stroke-width:15;stroke-linecap:round;stroke-linejoin:round;stroke-miterlimit:10;" d="&#10;&#9;&#9;&#9;M41.515,129.811c7.51-14.51,22.66-24.43,40.13-24.43h13.06"/>
		<path style="fill:none;stroke:#000000;stroke-width:15;stroke-linecap:round;stroke-linejoin:round;stroke-miterlimit:10;" d="&#10;&#9;&#9;&#9;M38.765,164.811c5.934,17.854,22.799,30.92,42.88,30.92h13.06"/>
		
			<circle style="fill:none;stroke:#000000;stroke-width:15;stroke-linecap:round;stroke-linejoin:round;stroke-miterlimit:10;" cx="66.59" cy="30.088" r="22.588"/>
		
			<line style="fill:none;stroke:#000000;stroke-width:15;stroke-linecap:round;stroke-linejoin:round;stroke-miterlimit:10;" x1="443.061" y1="107.183" x2="443.061" y2="55.439"/>
		<path style="fill:none;stroke:#000000;stroke-width:15;stroke-linecap:round;stroke-linejoin:round;stroke-miterlimit:10;" d="&#10;&#9;&#9;&#9;M414.945,195.731h13.06c24.935,0,45.17-20.208,45.17-45.17c0-24.95-20.22-45.18-45.17-45.18h-13.06"/>
		<path style="fill:none;stroke:#000000;stroke-width:15;stroke-linecap:round;stroke-linejoin:round;stroke-miterlimit:10;" d="&#10;&#9;&#9;&#9;M179.595,35.621c0.97-15.69,14-28.12,29.94-28.12h90.58c15.94,0,28.97,12.43,29.94,28.12"/>
		
			<line style="fill:none;stroke:#000000;stroke-width:15;stroke-linecap:round;stroke-linejoin:round;stroke-miterlimit:10;" x1="217.175" y1="302.273" x2="217.175" y2="264.758"/>
		
			<line style="fill:none;stroke:#000000;stroke-width:15;stroke-linecap:round;stroke-linejoin:round;stroke-miterlimit:10;" x1="292.475" y1="302.273" x2="292.475" y2="264.758"/>
		<path style="fill:none;stroke:#000000;stroke-width:15;stroke-linecap:round;stroke-linejoin:round;stroke-miterlimit:10;" d="&#10;&#9;&#9;&#9;M375.415,504.441h22.53c8.28,0,15-6.72,15-15v-75.82c0-58.94-42.49-107.94-98.49-118.07c-4.02-0.73-8.15,0.25-11.44,2.66&#10;&#9;&#9;&#9;c-6.06,4.43-19.57,10.47-48.19,10.47s-42.13-6.04-48.19-10.47c-3.29-2.41-7.42-3.39-11.44-2.66&#10;&#9;&#9;&#9;c-56,10.13-98.49,59.13-98.49,118.07v75.82c0,8.28,6.72,15,15,15h228.71"/>
		<path style="fill:none;stroke:#000000;stroke-width:15;stroke-linecap:round;stroke-linejoin:round;stroke-miterlimit:10;" d="&#10;&#9;&#9;&#9;M352.943,263.5H156.708c-33.137,0-60-26.863-60-60V97.618c0-33.137,26.863-60,60-60h196.235c33.137,0,60,26.863,60,60V203.5&#10;&#9;&#9;&#9;C412.943,236.637,386.08,263.5,352.943,263.5z"/>
		<path style="fill:none;stroke:#000000;stroke-width:15;stroke-linecap:round;stroke-linejoin:round;stroke-miterlimit:10;" d="&#10;&#9;&#9;&#9;M363.555,126.991c16.422,44.315-16.486,91.33-63.55,91.33h-90.36c-37.42,0-67.76-30.34-67.76-67.76&#10;&#9;&#9;&#9;c0-37.432,30.339-67.77,67.76-67.77h90.36c16.36,0,31.37,5.8,43.08,15.45"/>
		
			<circle style="fill:none;stroke:#000000;stroke-width:15;stroke-linecap:round;stroke-linejoin:round;stroke-miterlimit:10;" cx="443.061" cy="30.088" r="22.588"/>
		<path style="fill:none;stroke:#000000;stroke-width:15;stroke-linecap:round;stroke-linejoin:round;stroke-miterlimit:10;" d="&#10;&#9;&#9;&#9;M157.355,459.261h8.43c3.98,0,7.8,1.58,10.61,4.4l6.27,6.27c2.81,2.81,6.63,4.39,10.61,4.39h15.37"/>
		
			<circle style="fill:none;stroke:#000000;stroke-width:15;stroke-linecap:round;stroke-linejoin:round;stroke-miterlimit:10;" cx="141.884" cy="459.265" r="15.059"/>
		
			<line style="fill:none;stroke:#000000;stroke-width:15;stroke-linecap:round;stroke-linejoin:round;stroke-miterlimit:10;" x1="228.475" y1="415.251" x2="228.475" y2="373.141"/>
		
			<circle style="fill:none;stroke:#000000;stroke-width:15;stroke-linecap:round;stroke-linejoin:round;stroke-miterlimit:10;" cx="228.472" cy="353.853" r="15.059"/>
		
			<line style="fill:none;stroke:#000000;stroke-width:15;stroke-linecap:round;stroke-linejoin:round;stroke-miterlimit:10;" x1="281.175" y1="415.251" x2="281.175" y2="392.601"/>
		
			<circle style="fill:none;stroke:#000000;stroke-width:15;stroke-linecap:round;stroke-linejoin:round;stroke-miterlimit:10;" cx="281.178" cy="376.441" r="15.059"/>
		
			<line style="fill:none;stroke:#000000;stroke-width:15;stroke-linecap:round;stroke-linejoin:round;stroke-miterlimit:10;" x1="209.575" y1="436.681" x2="187.065" y2="436.681"/>
		<path style="fill:none;stroke:#000000;stroke-width:15;stroke-linecap:round;stroke-linejoin:round;stroke-miterlimit:10;" d="&#10;&#9;&#9;&#9;M300.075,436.681h16.3c3.98,0,7.8,1.58,10.61,4.39l6.27,6.27c2.81,2.81,6.63,4.39,10.61,4.39h6.43"/>
		
			<circle style="fill:none;stroke:#000000;stroke-width:15;stroke-linecap:round;stroke-linejoin:round;stroke-miterlimit:10;" cx="367.766" cy="451.735" r="15.059"/>
		
			<line style="fill:none;stroke:#000000;stroke-width:15;stroke-linecap:round;stroke-linejoin:round;stroke-miterlimit:10;" x1="322.585" y1="474.321" x2="301.005" y2="474.321"/>
		<path style="fill:none;stroke:#000000;stroke-width:15;stroke-linecap:round;stroke-linejoin:round;stroke-miterlimit:10;" d="&#10;&#9;&#9;&#9;M209.649,501.441v-57.353c0-16.569,13.431-30,30-30h30.353c16.569,0,30,13.431,30,30v57.353"/>
		<g>
			<g>
				<path style="fill:none;stroke:#000000;stroke-width:15;stroke-linecap:round;stroke-linejoin:round;stroke-miterlimit:10;" d="&#10;&#9;&#9;&#9;&#9;&#9;M209.649,188.206l28.648-74.234c0.585-1.412,2.611-1.414,3.2-0.003l28.388,74.237"/>
				
					<line style="fill:none;stroke:#000000;stroke-width:15;stroke-linecap:round;stroke-linejoin:round;stroke-miterlimit:10;" x1="218.583" y1="169.718" x2="261.094" y2="169.718"/>
			</g>
			<g>
				
					<line style="fill:none;stroke:#000000;stroke-width:15;stroke-linecap:round;stroke-linejoin:round;stroke-miterlimit:10;" x1="300.002" y1="112.912" x2="300.002" y2="188.206"/>
			</g>
		</g>
	</g>
</g>
<g>
</g>
<g>
</g>
<g>
</g>
<g>
</g>
<g>
</g>
<g>
</g>
<g>
</g>
<g>
</g>
<g>
</g>
<g>
</g>
<g>
</g>
<g>
</g>
<g>
</g>
<g>
</g>
<g>
</g>
</svg>