<svg version="1.1" id="Capa_1" xmlns="http://www.w3.org/2000/svg" xmlns:xlink="http://www.w3.org/1999/xlink" x="0px" y="0px" viewBox="0 0 510 510" style="enable-background:new 0 0 510 510;" xml:space="preserve">
<g>
	<g>
		<g>
			<path style="fill:#B1D952;" d="M121.643,144H32.358C20.01,144,10,133.99,10,121.642V32.358C10,20.01,20.01,10,32.358,10h89.285&#10;&#9;&#9;&#9;&#9;C133.99,10,144,20.01,144,32.358v89.285C144,133.99,133.99,144,121.643,144z"/>
			<path style="fill:#91B706;" d="M98.894,10H32.358C20.01,10,10,20.01,10,32.358v89.285C10,133.99,20.01,144,32.358,144h80.306&#10;&#9;&#9;&#9;&#9;C74.327,109.484,68.468,51.45,98.894,10z"/>
		</g>
		<path style="fill:#67CCD1;" d="M22.272,427.407v-45.936c0-19.732,15.996-35.728,35.728-35.728h0&#10;&#9;&#9;&#9;c19.732,0,35.728,15.996,35.728,35.728v45.936c0,19.732-15.996,35.728-35.728,35.728h0&#10;&#9;&#9;&#9;C38.268,463.134,22.272,447.139,22.272,427.407z"/>
		<g>
			<path style="fill:#FFFFFF;" d="M478,380H378c-12.15,0-22,9.85-22,22v76c0,12.15,9.85,22,22,22h100c12.15,0,22-9.85,22-22v-76&#10;&#9;&#9;&#9;&#9;C500,389.85,490.15,380,478,380z"/>
			<path style="fill:#91B706;" d="M356,476.139V478c0,12.15,9.85,22,22,22h80.348l-58.315-76L356,476.139z"/>
			<path style="fill:#B1D952;" d="M494.383,492.679l-39.736-51.787L404.728,500H478C484.509,500,490.355,497.172,494.383,492.679z"/>
		</g>
		<g>
			<path style="fill:#BC9AF4;" d="M324.143,167H185.857c-24.301,0-44,19.699-44,44v88c0,24.301,19.699,44,44,44h138.286&#10;&#9;&#9;&#9;&#9;c24.301,0,44-19.699,44-44v-88C368.143,186.699,348.443,167,324.143,167z"/>
			<path style="fill:#6864F7;" d="M141.857,211v88c0,24.301,19.7,44,44,44h136.796c-48.692-21.522-82.677-70.234-82.677-126.894&#10;&#9;&#9;&#9;&#9;c0-17.292,3.174-33.84,8.956-49.106h-63.075C161.557,167,141.857,186.699,141.857,211z"/>
		</g>
		<g>
			<path style="fill:#FD7DA0;" d="M424.201,161.599L424.201,161.599c-41.863,0-75.799-33.936-75.799-75.799v0&#10;&#9;&#9;&#9;&#9;c0-41.863,33.936-75.799,75.799-75.799h0C466.064,10,500,43.936,500,85.799v0C500,127.662,466.064,161.599,424.201,161.599z"/>
			<path style="fill:#DB4B86;" d="M416.066,74.168c0-24.052,9.147-45.967,24.152-62.457C435.053,10.6,429.698,10,424.201,10h0&#10;&#9;&#9;&#9;&#9;c-41.863,0-75.799,33.936-75.799,75.799v0c0,41.863,33.936,75.799,75.799,75.799h0c12.786,0,24.824-3.179,35.39-8.769&#10;&#9;&#9;&#9;&#9;C433.447,136.407,416.066,107.32,416.066,74.168z"/>
			<g>
				<path style="fill:#FFFFFF;" d="M448.954,73.697l-26.369-15.305c-9.328-5.414-21.017,1.316-21.017,12.102v30.61&#10;&#9;&#9;&#9;&#9;&#9;c0,10.786,11.688,17.516,21.017,12.102l26.369-15.305C458.246,92.508,458.246,79.09,448.954,73.697z"/>
			</g>
		</g>
	</g>
	<g>
		<g>
			<polyline style="fill:none;stroke:#FDCB50;stroke-width:20;stroke-linejoin:round;stroke-miterlimit:10;" points="368.143,255 &#10;&#9;&#9;&#9;&#9;424.314,255 424.314,161.599 &#9;&#9;&#9;"/>
			<polyline style="fill:none;stroke:#FDCB50;stroke-width:20;stroke-linejoin:round;stroke-miterlimit:10;" points="255,344 &#10;&#9;&#9;&#9;&#9;255,440 356,440 &#9;&#9;&#9;"/>
			<polyline style="fill:none;stroke:#FDCB50;stroke-width:20;stroke-linejoin:round;stroke-miterlimit:10;" points="141.857,255 &#10;&#9;&#9;&#9;&#9;58,255 58,345.744 &#9;&#9;&#9;"/>
			<polyline style="fill:none;stroke:#FDCB50;stroke-width:20;stroke-linejoin:round;stroke-miterlimit:10;" points="255,166 &#10;&#9;&#9;&#9;&#9;255,77 144,77 &#9;&#9;&#9;"/>
		</g>
		<g>
			<g>
				<g>
					<path style="fill:none;stroke:#FFFFFF;stroke-width:20;stroke-linecap:round;stroke-linejoin:round;stroke-miterlimit:10;" d="&#10;&#9;&#9;&#9;&#9;&#9;&#9;M199.107,299l33.044-86.761c0.675-1.651,3.012-1.653,3.691-0.004L268.585,299"/>
					
						<line style="fill:none;stroke:#FFFFFF;stroke-width:20;stroke-linecap:round;stroke-linejoin:round;stroke-miterlimit:10;" x1="209.412" y1="284.202" x2="258.446" y2="284.202"/>
				</g>
				<g>
					
						<line style="fill:none;stroke:#FFFFFF;stroke-width:20;stroke-linecap:round;stroke-linejoin:round;stroke-miterlimit:10;" x1="310.893" y1="211" x2="310.893" y2="299"/>
				</g>
			</g>
			<path style="fill:none;stroke:#052A75;stroke-width:20;stroke-linejoin:round;stroke-miterlimit:10;" d="M324.143,167H185.857&#10;&#9;&#9;&#9;&#9;c-24.301,0-44,19.699-44,44v88c0,24.301,19.699,44,44,44h138.286c24.301,0,44-19.699,44-44v-88&#10;&#9;&#9;&#9;&#9;C368.143,186.699,348.443,167,324.143,167z"/>
		</g>
		<g>
			
				<line style="fill:none;stroke:#FFFFFF;stroke-width:20;stroke-linecap:round;stroke-linejoin:round;stroke-miterlimit:10;" x1="77" y1="54" x2="77" y2="100"/>
			
				<line style="fill:none;stroke:#FFFFFF;stroke-width:20;stroke-linecap:round;stroke-linejoin:round;stroke-miterlimit:10;" x1="58.119" y1="54" x2="95.882" y2="54"/>
		</g>
		<g>
			<path style="fill:none;stroke:#052A75;stroke-width:20;stroke-linejoin:round;stroke-miterlimit:10;" d="M424.201,161.599&#10;&#9;&#9;&#9;&#9;L424.201,161.599c-41.863,0-75.799-33.936-75.799-75.799v0c0-41.863,33.936-75.799,75.799-75.799h0&#10;&#9;&#9;&#9;&#9;C466.064,10,500,43.936,500,85.799v0C500,127.662,466.064,161.599,424.201,161.599z"/>
			<path style="fill:none;stroke:#052A75;stroke-width:20;stroke-linejoin:round;stroke-miterlimit:10;" d="M378,380h100&#10;&#9;&#9;&#9;&#9;c12.15,0,22,9.85,22,22v76c0,12.15-9.85,22-22,22H378c-12.15,0-22-9.85-22-22v-76C356,389.85,365.85,380,378,380z"/>
			<g>
				
					<line style="fill:none;stroke:#052A75;stroke-width:20;stroke-linecap:round;stroke-linejoin:round;stroke-miterlimit:10;" x1="10" y1="404.439" x2="106" y2="404.439"/>
				<path style="fill:none;stroke:#052A75;stroke-width:20;stroke-linejoin:round;stroke-miterlimit:10;" d="M22.272,427.407&#10;&#9;&#9;&#9;&#9;&#9;v-45.936c0-19.732,15.996-35.728,35.728-35.728h0c19.732,0,35.728,15.996,35.728,35.728v45.936&#10;&#9;&#9;&#9;&#9;&#9;c0,19.732-15.996,35.728-35.728,35.728h0C38.268,463.134,22.272,447.139,22.272,427.407z"/>
				
					<line style="fill:none;stroke:#052A75;stroke-width:20;stroke-linejoin:round;stroke-miterlimit:10;" x1="58" y1="463.134" x2="58" y2="500"/>
				
					<line style="fill:none;stroke:#052A75;stroke-width:20;stroke-linecap:round;stroke-linejoin:round;stroke-miterlimit:10;" x1="30.503" y1="500" x2="85.497" y2="500"/>
			</g>
			<path style="fill:none;stroke:#052A75;stroke-width:20;stroke-linejoin:round;stroke-miterlimit:10;" d="M121.643,144H32.358&#10;&#9;&#9;&#9;&#9;C20.01,144,10,133.99,10,121.642V32.358C10,20.01,20.01,10,32.358,10h89.285C133.99,10,144,20.01,144,32.358v89.285&#10;&#9;&#9;&#9;&#9;C144,133.99,133.99,144,121.643,144z"/>
		</g>
	</g>
</g>
<g>
</g>
<g>
</g>
<g>
</g>
<g>
</g>
<g>
</g>
<g>
</g>
<g>
</g>
<g>
</g>
<g>
</g>
<g>
</g>
<g>
</g>
<g>
</g>
<g>
</g>
<g>
</g>
<g>
</g>
</svg>