<svg height="512" viewBox="0 0 64 64" width="512" xmlns="http://www.w3.org/2000/svg"><g id="_24-drawing" data-name="24-drawing"><path d="m22 54h8v2h-8z" fill="#72665d"/><path d="m34 54h9v2h-9z" fill="#72665d"/><path d="m1 4h62v39h-62z" fill="#e9e0d7"/><path d="m48 14v2l1 2h2l1-2v-2z" fill="#66a6a8"/><path d="m13 14v2l1 2h2l1-2v-2z" fill="#66a6a8"/><path d="m14 24-10 11h8v-2a5 5 0 0 1 10 0v2h5v-2a5 5 0 0 1 10 0v2h5v-2a5 5 0 0 1 10 0v2h8l-9-11z" fill="#fa9f12"/><path d="m25 1h14v6h-14z" fill="#8c070d"/><path d="m1 35h62v8h-62z" fill="#3c6b8b"/><path d="m14 40h36v6h-36z" fill="#8c070d"/><path d="m30 46h4v17h-4z" fill="#9b8778"/><path d="m27 46-.47 1-7.53 16h-4l7.53-16 .47-1z" fill="#9b8778"/><path d="m49 63h-4l-7.53-16-.47-1h4l.47 1z" fill="#9b8778"/><path d="m26 53h2v4h-2z" fill="#4e4035"/><path d="m36 53h2v4h-2z" fill="#4e4035"/><path d="m51 14h-2v-2a1 1 0 0 1 1-1 1 1 0 0 1 1 1z" fill="#4d7d7e"/><path d="m16 14h-2v-2a1 1 0 0 1 1-1 1 1 0 0 1 1 1z" fill="#4d7d7e"/><path d="m50 20h-35v2h3v2h2v-2h2v2h2v-2h2v2h2v-2h2v2h2v-2h2v2h2v-2h2v2h2v-2h2v2h2v-2h2v2h2v-2h2z" fill="#8c070d"/><path d="m21 42h22v2h-22z" fill="#d19c9e"/><path d="m45 42h2v2h-2z" fill="#d19c9e"/><path d="m17 42h2v2h-2z" fill="#d19c9e"/><path d="m4 10a1 1 0 0 1 -1-1v-1a2 2 0 0 1 2-2h1a1 1 0 0 1 1 1 1 1 0 0 1 -1 1 1 1 0 0 0 -1 1 1 1 0 0 1 -1 1z" fill="#c4bcb3"/><path d="m60 10a1 1 0 0 1 -1-1 1 1 0 0 0 -1-1 1 1 0 0 1 -1-1 1 1 0 0 1 1-1h1a2 2 0 0 1 2 2v1a1 1 0 0 1 -1 1z" fill="#c4bcb3"/><path d="m20 12h2v2h-2z" fill="#ffce33"/><path d="m17 8h2v2h-2z" fill="#ffce33"/><path d="m42 13h2v2h-2z" fill="#ffce33"/><path d="m45 10h2v2h-2z" fill="#ffce33"/><g fill="#2d5068"><path d="m10 38a3 3 0 0 1 -3-3h2a1 1 0 0 0 2 0h2a3 3 0 0 1 -3 3z"/><path d="m14 38a3 3 0 0 1 -3-3h2a1 1 0 0 0 2 0h2a3 3 0 0 1 -3 3z"/><path d="m20 38a3 3 0 0 1 -3-3h2a1 1 0 0 0 2 0h2a3 3 0 0 1 -3 3z"/><path d="m24 38a3 3 0 0 1 -3-3h2a1 1 0 0 0 2 0h2a3 3 0 0 1 -3 3z"/><path d="m29 38a3 3 0 0 1 -3-3h2a1 1 0 0 0 2 0h2a3 3 0 0 1 -3 3z"/><path d="m44 38a3 3 0 0 1 -3-3h2a1 1 0 0 0 2 0h2a3 3 0 0 1 -3 3z"/><path d="m35 38a3 3 0 0 1 -3-3h2a1 1 0 0 0 2 0h2a3 3 0 0 1 -3 3z"/><path d="m39 38a3 3 0 0 1 -3-3h2a1 1 0 0 0 2 0h2a3 3 0 0 1 -3 3z"/><path d="m50 38a3 3 0 0 1 -3-3h2a1 1 0 0 0 2 0h2a3 3 0 0 1 -3 3z"/><path d="m54 38a3 3 0 0 1 -3-3h2a1 1 0 0 0 2 0h2a3 3 0 0 1 -3 3z"/></g><path d="m49 18h2v6h-2z" fill="#4d7d7e"/><path d="m14 18h2v6h-2z" fill="#4d7d7e"/><path d="m30 46h4v1h-4z" fill="#72665d"/><path d="m41.47 47h-4l-.47-1h4z" fill="#72665d"/><path d="m27 46-.47 1h-4l.47-1z" fill="#72665d"/></g></svg>