<svg id="Architecture" viewBox="0 0 100 100" xmlns="http://www.w3.org/2000/svg"><path d="m19.03 74.12h6.95v18.53h-6.95z" fill="#d29465"/><path d="m74.02 74.12h6.95v18.53h-6.95z" fill="#d29465"/><path d="m7.35 71.4h85.3v5.44h-85.3z" fill="#b06a37"/><path d="m7.35 71.4h85.3l-11.38-23.26h-62.54z" fill="#d29465" fill-rule="evenodd"/><path d="m41.39 7.35h22.16v53.88h-22.16z" fill="#d8dfee"/><path d="m41.39 20.64-13.59 4.23v36.36h13.59z" fill="#40b9b1" fill-rule="evenodd"/><path d="m63.54 40.99h8.66v20.24h-8.66z" fill="#fd6f71"/><path d="m41.39 41.49a82.68 82.68 0 0 0 22.15-14.49v-19.65h-22.15z" fill="#eef5ff" fill-rule="evenodd"/><path d="m27.79 46.32a77.27 77.27 0 0 0 13.6-4.83v-20.85l-13.6 4.23z" fill="#47cdc4" fill-rule="evenodd"/><path d="m50.56 14.39h-3.56v5h3.57zm44.44 57.96-12-26h-8.74v-7.27h-8.68v-34.08h-26v14l-13.84 4.16v23.17h-8.58l-12 25.2-.16 7.35h11.75v16.12h10.72v-16.12h45.06v16.12h10.72v-16.12h11.75zm-24.31-29.7v16.94h-5.11v-6.59h3.27v-3.61h-3.27v-6.74zm-27.59-34.08h18.9v51h-18.9zm-13.79 17.25 10.22-3.17v36.94h-3.37v-25.71h-3.58v25.71h-3.27zm-9.91 24.08h6.34v9.69h-4.29v3.57h57.2v-3.57h-4.39v-9.69h6.44l9.4 19.9h-80.1zm4.5 41.53h-3.58v-12.55h3.58zm55.78 0h-3.58v-12.55h3.58zm-71.1-16.12v-1.94h82.84v1.94zm49.42-28.98h-3.56v5.1h3.56zm-7.46 0h-3.54v5.1h3.57zm7.46-10.72h-3.56v5.1h3.56zm-7.46 0h-3.54v5.1h3.57zm7.46-10.61h-3.56v5.1h3.56zm-7.46 0h-3.54v5.1h3.57zm7.46-10.61h-3.56v5h3.56z"/></svg>