<svg id="Layer_1" enable-background="new 0 0 500 500" viewBox="0 0 500 500" xmlns="http://www.w3.org/2000/svg"><g clip-rule="evenodd" fill-rule="evenodd"><path d="m45.913 70.623c0-22.017 24.918-39.864 55.655-39.864h8.456v148.559h-64.111z" fill="#b3b3b3"/><path d="m454.073 406.622c0 22.016-24.918 39.864-55.655 39.864h-8.456v-148.559h64.111z" fill="#b3b3b3"/><path d="m45.913 70.623c0 22.016 24.918 39.864 55.655 39.864h291.39c33.752 0 61.115 17.848 61.115 39.864v256.271c0-22.017-24.918-39.864-55.655-39.864h-72.243v-39.094h-155.305v39.094h-63.843c-33.752 0-61.115-17.848-61.115-39.864v-256.271z" fill="#e6e6e6"/><path d="m126.269 335.275v26.927l26.094 8.479c2.386 9.287 6.061 18.056 10.824 26.107l-12.462 24.459 23.562 23.562 24.459-12.462c8.051 4.764 16.819 8.443 26.107 10.827l8.478 26.092h33.321l8.479-26.095c9.287-2.385 18.056-6.061 26.107-10.824l24.459 12.462 23.561-23.562-12.462-24.459c4.764-8.05 8.443-16.82 10.827-26.108l26.092-8.478v-26.927h-66.155c6.336 35.772-21.105 68.733-57.569 68.733s-63.905-32.961-57.568-68.733z" fill="#fa6e85"/><path d="m249.993 185.802c50.389 0 91.237 40.848 91.237 91.237 0 13.595-2.978 26.493-8.311 38.085h-165.853c-5.332-11.591-8.311-24.489-8.311-38.085 0-50.389 40.849-91.237 91.238-91.237z" fill="#ffe177"/><path d="m249.993 185.802c7.321 0 14.439.868 21.261 2.497v69.558c0 5.187-4.243 9.43-9.43 9.43h-23.662c-5.187 0-9.43-4.243-9.43-9.43v-69.559c6.822-1.628 13.94-2.496 21.261-2.496z" fill="#d6b4a8"/><path d="m113.53 337.479h272.927c5.338 0 9.706-4.367 9.706-9.706v-18.89c0-5.338-4.367-9.706-9.706-9.706h-272.927c-5.339 0-9.706 4.367-9.706 9.706v18.89c0 5.339 4.367 9.706 9.706 9.706z" fill="#ffbf31"/><path d="m101.64 233.92-15.944-15.944c-2.678-2.673-2.678-7.014 0-9.692 2.673-2.673 7.014-2.673 9.687 0l10.714 10.72 27.074-31.595c2.465-2.869 6.789-3.204 9.67-.739 2.869 2.459 3.204 6.789.739 9.658l-31.895 37.211c-2.596 3.029-7.231 3.196-10.045.381zm61.78-81.032c0-3.781 3.06-6.852 6.852-6.852h239.178c3.793 0 6.852 3.071 6.852 6.852s-3.06 6.852-6.852 6.852h-239.178c-3.793 0-6.852-3.071-6.852-6.852zm-77.725 7.498c-2.678-2.678-2.678-7.014 0-9.692 2.673-2.667 7.014-2.667 9.687 0l10.714 10.714 27.074-31.589c2.465-2.869 6.789-3.204 9.67-.739 2.869 2.465 3.204 6.789.739 9.664l-31.895 37.2c-2.607 3.049-7.233 3.199-10.045.393zm312.729 279.23h-1.611v-66.023h1.611c26.901 0 48.803 14.813 48.803 33.015s-21.902 33.008-48.803 33.008zm-52.913-75.468c-2.228.733-3.937 2.54-4.52 4.815-2.188 8.532-5.588 16.718-10.091 24.315-1.195 2.02-1.27 4.515-.208 6.61l10.206 20.026-16.522 16.516-20.02-10.206c-2.096-1.062-4.589-.987-6.61.208-7.597 4.503-15.783 7.897-24.315 10.091-2.274.583-4.087 2.292-4.814 4.52l-6.945 21.359h-23.356l-6.945-21.359c-.721-2.228-2.54-3.937-4.814-4.52-8.526-2.188-16.701-5.588-24.321-10.091-2.02-1.195-4.514-1.27-6.593-.208l-20.026 10.206-16.527-16.516 10.2-20.026c1.074-2.095.993-4.578-.208-6.61-4.491-7.597-7.891-15.783-10.085-24.315-.577-2.274-2.28-4.081-4.514-4.815l-21.359-6.933v-12.902h51.574c-.012.404-.017.814-.017 1.218 0 36.011 29.297 65.319 65.319 65.319 36.011 0 65.319-29.308 65.319-65.319 0-.404-.017-.814-.029-1.218h51.58v12.902zm-109.931-170.268c9.567-1.661 19.253-1.664 28.824 0v63.968c0 1.397-1.178 2.575-2.575 2.575h-23.663c-1.397 0-2.586-1.178-2.586-2.575zm-69.967 83.14c0 5.143.462 10.27 1.38 15.292h166.002c7.623-41.444-16.455-81.231-54.888-94.852v60.389c0 8.965-7.297 16.273-16.279 16.273h-23.663c-8.983 0-16.291-7.308-16.291-16.273v-60.389c-32.736 11.602-56.261 42.891-56.261 79.56zm-52.081 53.588c-1.541 0-2.852-1.305-2.852-2.852v-18.889c0-1.541 1.311-2.852 2.852-2.852h272.925c1.553 0 2.858 1.31 2.858 2.852v18.889c0 1.547-1.305 2.852-2.858 2.852zm188.082 14.923c0-.404-.017-.814-.029-1.218h-103.182c-.828 28.693 22.582 52.832 51.597 52.832 28.454 0 51.614-23.16 51.614-51.614zm-248.847-18.652c0 17.89 24.852 33.009 54.258 33.009h12.394v-15.575h-5.888c-9.127 0-16.556-7.424-16.556-16.556v-18.889c0-9.127 7.43-16.556 16.556-16.556h39.567c-9.286-59.605 36.774-113.377 96.902-113.377 24.904 0 47.666 9.334 64.99 24.69h94.46c3.793 0 6.852 3.06 6.852 6.852 0 3.781-3.06 6.852-6.852 6.852h-81.685c16.132 20.949 23.387 47.823 19.125 74.983h39.567c9.133 0 16.562 7.43 16.562 16.556v18.889c0 9.133-7.429 16.556-16.562 16.556h-5.882v15.575h17.849c18.451 0 36.343 5.927 48.803 17.405v-226.957c0-17.895-24.852-33.014-54.27-33.014h-291.387c-18.357 0-36.444-5.931-48.803-17.393zm48.803-289.285h1.599v66.023h-1.599c-26.913 0-48.803-14.807-48.803-33.003 0-18.208 21.891-33.02 48.803-33.02zm338.349 78.815c-12.642-8.249-29.32-12.792-46.962-12.792h-276.083v-72.87c0-3.787-3.06-6.852-6.852-6.852h-8.451c-16.285 0-31.681 4.601-43.348 12.954-12.348 8.85-19.154 20.846-19.154 33.765v256.265c0 13.041 7.453 25.089 21.001 33.927 12.643 8.249 29.326 12.787 46.956 12.787h32.183l7.539 2.448c2.136 7.256 5.04 14.259 8.659 20.903l-10.789 21.174c-1.345 2.65-.832 5.859 1.264 7.961l23.564 23.559c2.096 2.101 5.311 2.615 7.949 1.259l21.18-10.784c6.656 3.625 13.653 6.529 20.897 8.665l7.349 22.595c.912 2.823 3.544 4.733 6.512 4.733h33.32c2.967 0 5.599-1.911 6.517-4.733l7.337-22.595c7.256-2.136 14.253-5.04 20.903-8.665l21.175 10.784c2.65 1.356 5.859.843 7.96-1.259l23.559-23.559c2.101-2.101 2.603-5.311 1.258-7.961l-10.783-21.163c3.625-6.662 6.529-13.658 8.665-20.915l7.539-2.448h22.329v72.876c0 3.793 3.065 6.852 6.852 6.852h8.457c16.279 0 31.675-4.595 43.336-12.954 12.365-8.855 19.171-20.84 19.171-33.759v-256.271c.004-13.041-7.461-25.094-21.009-33.927z" fill="#1e2f3f"/></g></svg>