<svg id="Layer_1" enable-background="new 0 0 512 512" viewBox="0 0 512 512" xmlns="http://www.w3.org/2000/svg"><g clip-rule="evenodd" fill-rule="evenodd"><path d="m101.07 494h-45.1v-150.51l45.1.43z" fill="#fedf30"/><path d="m131.68 397.76h45.1v96.24h-45.1z" fill="#ff5a5a"/><path d="m252.5 494h-45.1v-139.11l7.05 8.34c9.94 11.75 22.15 21.46 35.87 28.46l2.18 1.11z" fill="#05e39c"/><path d="m328.2 494h-45.1v-91.31l4.51.58c4.99.65 10.01.98 15.04.98 6.98 0 13.95-.63 20.82-1.89l4.72-.86v92.5z" fill="#87d4ed"/><path d="m418.21 373.6 61.7 52.51c5.43 4.62 8.36 11.26 8.64 18.35.33 8.23-2.93 16.58-8.76 22.4s-14.17 9.08-22.4 8.75c-7.09-.29-13.72-3.21-18.33-8.63l-52.52-61.7z" fill="#fedf30"/><path d="m396.95 355.51 18.2 15.49-31.22 31.22-15.64-18.39 3.41-2.55c8.55-6.4 16.2-13.95 22.69-22.43z" fill="#f1f1f2"/><path d="m414.18 288.72c0 61.5-50.02 111.53-111.52 111.53s-111.53-50.03-111.53-111.53 50.03-111.52 111.53-111.52 111.52 50.02 111.52 111.52z" fill="#fedf30"/><path d="m451.17 20.82 40.01 40.01h-40.01z" fill="#fedf30"/><path d="m277.11 43.66c0-1.1-.89-2-2-2h-19v-23.66h191.06v44.83c0 1.1.9 2 2 2h44.83v295.95h-84.68l-10.11-8.6 1.81-2.92c11.27-18.24 17.16-39.1 17.16-60.54 0-63.69-51.83-115.52-115.52-115.52-14.07 0-27.98 2.55-41.12 7.57l-5.43 2.07v-30.6h19c1.1 0 2-.9 2-2z" fill="#f1f1f2"/><path d="m18 45.66h255.11v102.58h-255.11z" fill="#87d4ed"/><path d="m302.66 206.14c-45.53 0-82.59 37.04-82.59 82.58s37.05 82.59 82.59 82.59 82.59-37.05 82.59-82.59c0-45.53-37.06-82.58-82.59-82.58z" fill="#f1f1f2"/><path d="m245.59 342.67c-2.85-3.02-5.47-6.24-7.82-9.67l-4.28-6.26h19v23.23z" fill="#05e39c"/><g fill="#87d4ed"><path d="m325.36 363.95c-7.36 2.24-15.01 3.36-22.7 3.36-5.51 0-11-.58-16.39-1.73l-3.17-.68v-103.35h45.1v101.54z"/><path d="m302.36 78.26c-1.1 0-2 .9-2 2 0 1.11.89 2 2 2h113.8c1.1 0 2-.89 2-2 0-1.1-.9-2-2-2z"/><path d="m302.36 125.74c-1.11 0-2 .89-2 2 0 1.1.9 2 2 2h153.91c1.11 0 2-.89 2-2s-.89-2-2-2z"/><path d="m381.34 173.21c-1.1 0-2 .9-2 2s.9 2 2 2h74.92c1.11 0 2-.89 2-2s-.89-2-2-2z"/><path d="m434.53 270.16c0 1.1.9 2 2 2h19.74c1.11 0 2-.89 2-2s-.89-2-2-2h-19.74c-1.11 0-2 .89-2 2z"/><path d="m456.27 315.63h-22.88c-1.1 0-2 .9-2 2s.9 2 2 2h22.88c1.11 0 2-.89 2-2s-.89-2-2-2z"/><path d="m422.24 220.68c-1.1 0-2 .9-2 2 0 1.11.89 2 2 2h34.03c1.11 0 2-.89 2-2s-.89-2-2-2z"/><path d="m131.53 109.9c-1.11 0-2 .89-2 2 0 1.1.89 2 2 2h118.87c1.1 0 2-.9 2-2 0-1.11-.89-2-2-2z"/><path d="m216.08 82c0-1.1-.89-2-2-2h-82.55c-1.1 0-2 .9-2 2 0 1.11.89 2 2 2h82.55c1.11 0 2-.89 2-2z"/></g><path d="m94.55 84.71 13.86-10.29c.89-.66 1.07-1.92.41-2.81-.66-.88-1.91-1.07-2.79-.41l-11.48 8.52v-8.69c0-1.1-.9-2-2-2h-51.84c-1.11 0-2 .89-2 2v51.84c0 1.11.89 2 2 2h51.84c1.1 0 2-.9 2-2z" fill="#f1f1f2"/><path d="m90.55 120.87h-47.84v-47.84h47.84v9.66l-23.4 17.37-8.53-11.16c-.67-.88-1.92-1.06-2.8-.38-.88.67-1.05 1.92-.38 2.8l9.73 12.75c.38.5.96.78 1.59.78.43 0 .84-.13 1.19-.39l22.61-16.78v33.19z" fill="#05e39c"/><path d="m86.55 116.87h-39.84v-39.84h39.84v3.65l-18.62 13.82-6.14-8.03c-2.01-2.64-5.78-3.14-8.41-1.13s-3.14 5.77-1.13 8.4l9.73 12.75c1.18 1.55 2.97 2.36 4.77 2.36 1.24 0 2.5-.38 3.57-1.18l16.22-12.04v21.24zm17.1-48.88-5.09 3.78v-.74c0-3.31-2.69-6-6-6h-51.85c-3.32 0-6 2.69-6 6v51.84c0 3.31 2.68 6 6 6h51.84c3.31 0 6-2.69 6-6v-36.15l12.24-9.09c2.66-1.98 3.22-5.74 1.24-8.4-1.97-2.66-5.73-3.21-8.38-1.24zm152.75 43.91c0 3.31-2.69 6-6 6h-118.87c-3.31 0-6-2.69-6-6 0-3.32 2.68-6 6-6h118.87c3.31 0 6 2.68 6 6zm-130.87-29.9c0-3.31 2.68-6 6-6h82.55c3.31 0 6 2.69 6 6 0 3.32-2.69 6-6 6h-82.55c-3.31 0-6-2.68-6-6zm177.13 132.14c41.13 0 74.58 33.46 74.58 74.58 0 29.07-16.72 54.29-41.04 66.59v-95.76c0-3.31-2.69-6-6-6h-49.1c-3.32 0-6 2.69-6 6v98.46c-5.18-2.06-10.08-4.69-14.61-7.81v-25.46c0-3.31-2.69-6-6-6h-20.09c-4.06-9.19-6.33-19.34-6.33-30.02 0-41.12 33.46-74.58 74.59-74.58zm-15.56 147.53c5.02 1.07 10.22 1.64 15.56 1.64 7.49 0 14.72-1.12 21.54-3.19v-94.57h-37.1zm-38.6-21.75v-9.18h-7.42c2.22 3.26 4.71 6.32 7.42 9.18zm54.16 35.39c47.74 0 86.59-38.84 86.59-86.59 0-47.74-38.85-86.58-86.59-86.58-47.75 0-86.59 38.84-86.59 86.58 0 47.75 38.84 86.59 86.59 86.59zm159.61-57.68c0 3.31-2.68 6-6 6h-22.88c-3.31 0-6-2.69-6-6s2.69-6 6-6h22.88c3.32 0 6 2.69 6 6zm0-47.47c0 3.31-2.68 6-6 6h-19.74c-3.31 0-6-2.69-6-6 0-3.32 2.69-6 6-6h19.74c3.32 0 6 2.68 6 6zm0-47.48c0 3.32-2.68 6-6 6h-34.03c-3.31 0-6-2.68-6-6 0-3.31 2.69-6 6-6h34.03c3.32 0 6 2.69 6 6zm0-47.47c0 3.31-2.68 6-6 6h-74.92c-3.31 0-6-2.69-6-6s2.69-6 6-6h74.92c3.32 0 6 2.69 6 6zm0-47.47c0 3.31-2.68 6-6 6h-153.91c-3.31 0-6-2.69-6-6 0-3.32 2.69-6 6-6h153.91c3.32 0 6 2.68 6 6zm-165.91-47.48c0-3.31 2.69-6 6-6h113.8c3.31 0 6 2.69 6 6 0 3.32-2.69 6-6 6h-113.8c-3.32 0-6-2.68-6-6zm114.43 276.52h79.21v-287.95h-40.83c-3.31 0-6-2.69-6-6v-40.83h-183.06v15.66h15c3.31 0 6 2.69 6 6v106.58c0 3.31-2.68 6-6 6h-15v20.79c13.23-5.05 27.57-7.83 42.55-7.83 65.9 0 119.52 53.62 119.52 119.52 0 22.95-6.5 44.41-17.76 62.64zm73.76 87.84c.28 7.12-2.55 14.38-7.59 19.41-5.03 5.03-12.29 7.87-19.41 7.58-6.21-.25-11.7-2.82-15.45-7.23l-50.12-58.89 26.45-26.45 58.89 50.12c4.41 3.76 6.98 9.25 7.23 15.46zm-86.98-83.33 11.69 9.95-25.09 25.09-10.07-11.84c8.85-6.62 16.75-14.43 23.47-23.2zm-73.37 128.71h-37.1v-82.76c5.09.66 10.28 1.01 15.56 1.01 7.36 0 14.55-.67 21.54-1.95zm-264.23-142.47 37.1.35v142.12h-37.1zm75.71 54.23h37.1v88.24h-37.1zm75.71-35.95c10.25 12.11 22.85 22.17 37.1 29.44v94.75h-37.1zm63.72 39.23v84.96h-14.61v-89.44c4.73 1.79 9.61 3.29 14.61 4.48zm27.55-223.84c-59.29 0-107.53 48.23-107.53 107.52s48.24 107.53 107.53 107.53 107.52-48.24 107.52-107.53-48.23-107.52-107.52-107.52zm-280.66-131.54v94.58h247.11v-94.58zm433.17-19.18 26.35 26.35h-26.35zm46.82 32.35c0-1.56-.6-3.09-1.75-4.24l-46.83-46.83c-1.15-1.15-2.68-1.75-4.24-1.75v-.01h-195.05c-3.31 0-6 2.69-6 6v21.66h-232.12c-3.31 0-6 2.69-6 6v106.58c0 3.31 2.69 6 6 6h232.12v26.15c-38.55 19.85-64.98 60.06-64.98 106.33 0 21.91 5.93 42.46 16.26 60.13v141.15h-14.61v-94.24c0-3.31-2.69-6-6-6h-49.1c-3.32 0-6 2.69-6 6v94.24h-14.61v-148.07c0-3.29-2.65-5.97-5.94-6l-49.1-.45c-.02 0-.04 0-.06 0-1.58 0-3.1.62-4.22 1.74-1.14 1.12-1.78 2.66-1.78 4.26v148.52h-25.98v-273.42c0-3.31-2.69-6-6-6-3.32 0-6 2.69-6 6v279.42c0 3.31 2.68 6 6 6h371.13c3.31 0 6-2.69 6-6s-2.69-6-6-6h-50.93v-86.55c9.88-2.89 19.23-7.03 27.87-12.22l68.89 80.93c5.95 6.99 14.51 11.06 24.11 11.44.51.02 1.01.03 1.51.03 10.04 0 19.76-4 26.87-11.11 7.47-7.47 11.51-17.82 11.09-28.38-.39-9.6-4.45-18.16-11.44-24.11l-60.21-51.25h71.11c3.31 0 6-2.68 6-6v-299.95z"/></g></svg>