<svg clip-rule="evenodd" fill-rule="evenodd" stroke-linejoin="round" stroke-miterlimit="2" viewBox="0 0 96 96" xmlns="http://www.w3.org/2000/svg"><g transform="translate(-3072 -272)"><g transform="matrix(0 -1.581 2.788 0 2644.67 997.209)"><path d="m449.735 156.152c0-.761-.533-1.491-1.481-2.029-.949-.538-2.236-.84-3.578-.84h-32.882c-2.794 0-5.059 1.284-5.059 2.869v28.696c0 .761.533 1.491 1.482 2.029s2.235.84 3.577.84h32.882c1.342 0 2.629-.302 3.578-.84.948-.538 1.481-1.268 1.481-2.029z" fill="#c3e5db"/></g><path d="m3120 286h-40c-2.12 0-4.16.843-5.66 2.343s-2.34 3.535-2.34 5.657v52c0 4.418 3.58 8 8 8h40z" fill="#fff"/><path d="m3095 354h5v-4h5v4h5v-4h5v4h5v-4h-5v-5h5v-5h-5v-5h5v-5h-5v-5h5v-5h-5v-5h5v-5h-5v5h-5v-5h-5v5h-5v-5h-5v5h-5v5h5v5h-5v5h5v5h-5v5h5v5h-5v5h5zm-23-39v5h3v5h-3v5h3v5h-3v5h3v5h-3v1c0 1.457.39 2.823 1.07 4h1.93v2.245c1.37 1.098 3.11 1.755 5 1.755v-4h5v4h5v-4h-5v-5h5v-5h-5v-5h5v-5h-5v-5h5v-5h-5v-5h5v-5h-5v5h-5v-5h-5v5zm23 30v5h5v-5zm10 0v5h5v-5zm-30 0v5h5v-5zm35-5v5h5v-5zm-10 0v5h5v-5zm-20 0v5h5v-5zm-5-5v5h5v-5zm20 0v5h5v-5zm10 0v5h5v-5zm-5 0h5v-5h-5zm10 0h5v-5h-5zm-30 0h5v-5h-5zm25-10v5h5v-5zm-30 0v5h5v-5zm20 0v5h5v-5zm15-5v5h5v-5zm-10 0v5h5v-5zm-20 0v5h5v-5zm15-5v5h5v-5zm10 0v5h5v-5zm-30 0v5h5v-5zm-3-10v5h3v-5h5v5h5v-5h5v-5h-5v5h-5v-5h-5v5zm28 0v-5h-5v5h-5v5h5v-5h5v5h5v-5h5v5h5v-5h5v-5h-5v5h-5v-5h-5v5zm0-10v-5h-5v5h-5v5h5v-5h5v5h5v-5h5v5h5v-5h5v-5h-5v5h-5v-5h-5v5zm-28 0v5h3v-5h5v5h5v-5h5v-5h-5v5h-5v-5h-5v5zm23-9h-5v4h5zm10 0h-5v4h5zm10 0h-5v4h5zm-30 0h-5v4h5zm-10 4v-2.245c-.23.183-.45.379-.66.588-.5.499-.92 1.057-1.27 1.657z" fill="#a7a7a7"/><path d="m3120 345.172v8.828h40c2.12 0 4.16-.843 5.66-2.343s2.34-3.535 2.34-5.657v-14.828l-12.17-12.172c-1.28-1.281-3.02-2-4.83-2s-3.55.719-4.83 2z" fill="#28a851"/><path d="m3155.83 354h-35.83v-35.828z" fill="#2abd59"/><g transform="matrix(1.273 0 0 1.273 3026.91 226.909)"><path d="m36.971 46.429c-.857.016-1.543.715-1.542 1.572 0 .856.686 1.555 1.543 1.57 5.202.093 9.43 4.227 9.457 9.437.004.865.706 1.563 1.57 1.563.865.001 1.567-.697 1.572-1.562.031-5.202 4.233-9.391 9.443-9.438.862-.007 1.557-.708 1.557-1.57.001-.862-.693-1.563-1.554-1.572-5.216-.055-9.408-4.225-9.446-9.44-.006-.864-.708-1.56-1.571-1.56s-1.565.696-1.571 1.56c-.039 5.223-4.262 9.343-9.458 9.44z" fill="#15aaf7"/></g><g transform="matrix(.933 0 0 .933 3047.47 251.2)"><circle cx="104.5" cy="55.5" fill="#fffef1" r="7.5"/></g><path d="m3118 364h-2c-1.1 0-2 .896-2 2s.9 2 2 2h8c1.1 0 2-.896 2-2s-.9-2-2-2h-2v-12c0-1.104-.9-2-2-2s-2 .896-2 2zm0-88v18c0 1.104.9 2 2 2s2-.896 2-2v-18h2c1.1 0 2-.896 2-2s-.9-2-2-2h-8c-1.1 0-2 .896-2 2s.9 2 2 2z" fill="#15aaf7"/><g transform="matrix(1.5 0 0 1 2649.5 120)"><path d="m307 152h-4c-.736 0-1.333.896-1.333 2s.597 2 1.333 2h4c.736 0 1.333-.896 1.333-2s-.597-2-1.333-2z" fill="#f8ef40"/></g><g transform="matrix(4.75 0 0 1 1654.75 205)"><path d="m307 152h-4c-.232 0-.421.896-.421 2s.189 2 .421 2h4c.232 0 .421-.896.421-2s-.189-2-.421-2z" fill="#f8ef40"/></g><g transform="translate(2791 120)"><path d="m307 152h-4c-1.104 0-2 .896-2 2s.896 2 2 2h4c1.104 0 2-.896 2-2s-.896-2-2-2z" fill="#f8ef40"/></g><g transform="matrix(1.75 0 0 1 2544.75 120)"><path d="m307 152h-4c-.631 0-1.143.896-1.143 2s.512 2 1.143 2h4c.631 0 1.143-.896 1.143-2s-.512-2-1.143-2z" fill="#f8ef40"/></g><g transform="matrix(1.75 0 0 1 2544.75 205)"><path d="m307 152h-4c-.631 0-1.143.896-1.143 2s.512 2 1.143 2h4c.631 0 1.143-.896 1.143-2s-.512-2-1.143-2z" fill="#f8ef40"/></g><g transform="translate(2771 127)"><path d="m307 152h-4c-1.104 0-2 .896-2 2s.896 2 2 2h4c1.104 0 2-.896 2-2s-.896-2-2-2z" fill="#f8ef40"/></g><g transform="translate(2771 212)"><path d="m307 152h-4c-1.104 0-2 .896-2 2s.896 2 2 2h4c1.104 0 2-.896 2-2s-.896-2-2-2z" fill="#f8ef40"/></g><g transform="translate(2802 212)"><path d="m307 152h-4c-1.104 0-2 .896-2 2s.896 2 2 2h4c1.104 0 2-.896 2-2s-.896-2-2-2z" fill="#f8ef40"/></g><g transform="matrix(3.5 0 0 1 2038.5 127)"><path d="m307 152h-4c-.315 0-.571.896-.571 2s.256 2 .571 2h4c.315 0 .571-.896.571-2s-.256-2-.571-2z" fill="#f8ef40"/></g><g transform="matrix(2.875 0 0 1 2215.88 212)"><path d="m307 152h-4c-.384 0-.696.896-.696 2s.312 2 .696 2h4c.384 0 .696-.896.696-2s-.312-2-.696-2z" fill="#f8ef40"/></g><g transform="matrix(.75 0 0 .759 2966.5 165.165)"><path d="m231.333 248.633c1.473 0 2.667-1.179 2.667-2.633 0 0 0-6.248 0-12.328 0-7.925-5.13-14.963-12.741-17.479-.478-.159-.954-.316-1.422-.471-3.452-1.141-5.791-4.319-5.825-7.914-.007-.8-.012-5.261-.012-5.261-.002-1.453-1.195-2.63-2.667-2.63h-13.333c-1.472 0-2.665 1.177-2.667 2.63 0 0-.005 4.461-.012 5.261-.034 3.595-2.373 6.773-5.825 7.914-.468.155-.943.312-1.422.471-7.611 2.516-12.741 9.554-12.741 17.479v12.328c0 1.454 1.194 2.633 2.667 2.633z" fill="#f4e6b5"/></g><path d="m3127.99 326.344c.77 1.223 1.95 2.18 3.39 2.66.35.118.71.237 1.06.357 5.71 1.911 9.56 7.257 9.56 13.276v9.363c0 1.105-.89 2-2 2h-40c-1.11 0-2-.895-2-2 0 0 0-4.745 0-9.363 0-6.019 3.85-11.365 9.56-13.276.35-.12.71-.239 1.06-.357 1.44-.48 2.62-1.437 3.39-2.66.18 4.256 3.69 7.656 7.99 7.656s7.81-3.4 7.99-7.656z" fill="#ee5151"/><g transform="matrix(1.117 0 0 1.133 2895.95 102.897)"><path d="m200.5 166.891c-6.771 0-11.634 6.15-11.634 12.921 0 3.613.74 7.536 2.436 10.562 1.872 3.341 4.856 5.641 9.198 5.641 4.341 0 7.327-2.31 9.199-5.656 1.695-3.031 2.435-6.954 2.435-10.547 0-6.771-4.863-12.921-11.634-12.921z" fill="#fdf3c2"/></g><path d="m3107.03 308c1.45-5.008 6.97-7 6.97-7 1.69 2.66 5.15 7 18.97 7 .02-.457.03-.91.03-1.359 0-7.672-5.43-14.641-13-14.641s-13 6.969-13 14.641c0 .45.01.903.03 1.359z" fill="#6e6e6a"/></g></svg>