<svg id="Layer_1" enable-background="new 0 0 510 510" height="512" viewBox="0 0 510 510" width="512" xmlns="http://www.w3.org/2000/svg"><g><path d="m61.266 480h-61.266v-90h60l10 46.667z" fill="#ff712f"/><path d="m510 480h-61.266l-9.391-43.336 10.657-46.664h60z" fill="#d63100"/><path d="m100 345c-22.056 0-40 17.944-40 40v85c0 22.056 17.944 40 40 40h93.556c20.13 0 37.194-15.064 39.691-35.039l2.917-23.332c1.184-9.48 9.282-16.629 18.836-16.629l10-48-10-42z" fill="#697c86"/><path d="m410 345h-155v90c9.554 0 17.652 7.148 18.837 16.63l2.917 23.331c2.496 19.976 19.56 35.039 39.69 35.039h93.556c22.056 0 40-17.944 40-40v-85c0-22.056-17.944-40-40-40z" fill="#465a61"/><path d="m210 32.137c-21.177 3.043-41.344 9.259-60 18.153l-15.001 24.71-14.999-7.25c-54.37 37.99-90 101.04-90 172.25l119.999 10 105.001-10 15-30-15-29.999z" fill="#f4d844"/><path d="m390 67.75-14.606.663-15.394-18.123c-18.655-8.894-38.82-15.109-59.996-18.152l-45.004 147.863v59.999l120 10 105-10c0-71.21-35.63-134.26-90-172.25z" fill="#ecbd2c"/><path d="m150 50.29v114.71h-30v-97.25c9.46-6.61 19.49-12.47 30-17.46z" fill="#ecbd2c"/><path d="m390 67.75v97.25h-30v-114.71c10.51 4.99 20.54 10.85 30 17.46z" fill="#e58f22"/><path d="m37.5 240c-20.711 0-37.5 16.789-37.5 37.5 0 20.711 16.789 37.5 37.5 37.5h217.5l10-37.5-10-37.5z" fill="#ecbd2c"/><path d="m472.5 240h-217.5v75h217.5c20.711 0 37.5-16.789 37.5-37.5 0-20.711-16.789-37.5-37.5-37.5z" fill="#e58f22"/><path d="m210 0v135c0 24.852 20.147 45 45 45l10-94.501-10-85.499z" fill="#ecbd2c"/><path d="m300 135v-135h-45v180c24.852 0 45-20.148 45-45z" fill="#e58f22"/><path d="m90 385v85c0 5.514 4.486 10 10 10h93.556c5.032 0 9.298-3.766 9.922-8.76l2.917-23.332c3.058-24.462 23.953-42.908 48.605-42.908l10-15-10-15h-155c-5.514 0-10 4.486-10 10z" fill="#78d3fc"/><path d="m303.605 447.909 2.916 23.331c.625 4.994 4.891 8.76 9.923 8.76h93.556c5.514 0 10-4.486 10-10v-85c0-5.514-4.486-10-10-10h-155v30c24.653 0 45.549 18.446 48.605 42.909z" fill="#5fa7fb"/></g></svg>