<svg id="Layer_1" enable-background="new 0 0 512 512" viewBox="0 0 512 512" xmlns="http://www.w3.org/2000/svg"><g clip-rule="evenodd" fill-rule="evenodd"><g><circle cx="310.161" cy="48.389" r="10.678"/><g><g><g><path d="m269.159 396.541h61.804c5.872 0 10.661-4.87 10.661-10.841v-68.054c0-3.103-2.489-5.635-5.542-5.635h-72.042c-3.052 0-5.542 2.532-5.542 5.635v68.054c0 5.971 4.789 10.841 10.661 10.841z" fill="#e3a76f"/><path d="m320.302 396.541h10.662c5.872 0 10.661-4.87 10.661-10.841v-68.053c0-3.103-2.489-5.635-5.542-5.635h-10.662c3.052 0 5.542 2.532 5.542 5.635v68.053c0 5.971-4.789 10.841-10.661 10.841z" fill="#c48958"/></g><g><path d="m286.145 312.011h27.832v28.585c0 2.936-2.394 5.33-5.33 5.33h-17.172c-2.936 0-5.33-2.394-5.33-5.33z" fill="#f2d1a5"/><path d="m307.689 312.011h6.288v28.585c0 2.936-2.394 5.331-5.33 5.331h-6.288c2.936 0 5.33-2.394 5.33-5.331z" fill="#ecba78"/></g></g><g><g><path d="m386.175 396.541h61.804c5.872 0 10.661-4.87 10.661-10.841v-68.054c0-3.103-2.489-5.635-5.542-5.635h-72.043c-3.052 0-5.541 2.532-5.541 5.635v68.054c0 5.971 4.789 10.841 10.661 10.841z" fill="#e3a76f"/><path d="m437.318 396.541h10.662c5.872 0 10.661-4.87 10.661-10.841v-68.053c0-3.103-2.489-5.635-5.542-5.635h-10.662c3.052 0 5.542 2.532 5.542 5.635v68.053c0 5.971-4.789 10.841-10.661 10.841z" fill="#c48958"/></g><g><path d="m403.161 312.011h27.833v28.585c0 2.936-2.394 5.33-5.33 5.33h-17.172c-2.936 0-5.33-2.394-5.33-5.33v-28.585z" fill="#f2d1a5"/><path d="m424.705 312.011h6.288v28.585c0 2.936-2.394 5.331-5.33 5.331h-6.288c2.936 0 5.33-2.394 5.33-5.331z" fill="#ecba78"/></g></g></g><g><path d="m296.973 75.896-10.814-48.059-200.207 123.012 53.196 64.92z" fill="#d1d1d6"/><g><path d="m455.898 224.139c0 20.748-11.523 38.805-28.517 48.122v-48.909l-26.891-15.526-26.891 15.526v48.275c-16.375-9.488-27.391-27.2-27.391-47.488 0-30.29 24.555-54.845 54.845-54.845s54.845 24.555 54.845 54.845z" fill="#d1d1d6"/><path d="m455.898 224.139c0 20.748-11.523 38.805-28.517 48.122v-.378c13.557-9.985 22.354-26.058 22.354-44.186 0-30.29-24.555-54.845-54.845-54.845-8.707 0-16.938 2.032-24.25 5.643 8.704-5.811 19.162-9.201 30.413-9.201 30.289 0 54.845 24.555 54.845 54.845zm-82.299-.788-6.163 3.558v40.564c1.953 1.517 4.011 2.908 6.163 4.154z" fill="#b1b1b5"/></g><path d="m77.207 379.51 104.439-1.398-42.831-162.085c-23.605-10.596-44.959-29.193-71.894-25.91z" fill="#d1d1d6"/><path d="m300.849 76.469 76.091 66.364c7.701-6.415 19.782-9.75 22.795-22.091l-66.482-75.719c-15.533 13.404-27.97 26.525-32.404 31.446z" fill="#d1d1d6"/><g><ellipse cx="305.679" cy="49.188" fill="#b1b1b5" rx="29.25" ry="29.251" transform="matrix(.23 -.973 .973 .23 187.576 335.388)"/><path d="m305.679 19.937c16.155 0 29.251 13.096 29.251 29.251s-13.096 29.25-29.251 29.25c-1.705 0-3.375-.148-5-.427 13.773-2.372 24.25-14.373 24.25-28.823s-10.478-26.451-24.25-28.823c1.624-.28 3.295-.428 5-.428z" fill="#9c9c9e"/></g><g><ellipse cx="401.053" cy="145.004" fill="#b1b1b5" rx="24.732" ry="24.732" transform="matrix(.16 -.987 .987 .16 193.68 517.651)"/><path d="m401.053 120.272c13.659 0 24.732 11.073 24.732 24.732s-11.074 24.732-24.732 24.732c-1.713 0-3.385-.174-5-.506 11.262-2.312 19.732-12.28 19.732-24.226s-8.47-21.914-19.732-24.226c1.614-.332 3.287-.506 5-.506z" fill="#9c9c9e"/></g><g><ellipse cx="118.927" cy="186.31" fill="#b1b1b5" rx="42.283" ry="42.283" transform="matrix(.29 -.957 .957 .29 -93.852 246.145)"/><path d="m118.928 144.028c23.351 0 42.283 18.931 42.283 42.282 0 23.352-18.931 42.283-42.283 42.283-1.692 0-3.36-.102-5-.296 20.994-2.474 37.282-20.328 37.282-41.987s-16.288-39.513-37.282-41.987c1.639-.193 3.308-.295 5-.295z" fill="#9c9c9e"/></g><g><ellipse cx="118.927" cy="186.31" fill="#9facba" rx="15.154" ry="15.154" transform="matrix(.16 -.987 .987 .16 -84.027 273.858)"/><path d="m118.927 171.156c1.752 0 3.435.298 5 .846-5.912 2.066-10.154 7.691-10.154 14.309s4.242 12.242 10.154 14.309c-1.566.547-3.248.846-5 .846-8.369 0-15.154-6.785-15.154-15.154 0-8.371 6.785-15.156 15.154-15.156z" fill="#8d9ca8"/></g><g><path d="m51.667 403.236h152.025v-22.382c0-6.417-6.014-11.668-13.364-11.668h-125.298c-7.351 0-13.362 5.25-13.362 11.668v22.382z" fill="#b1b1b5"/><path d="m194.92 403.236h8.773v-22.381c0-6.418-6.013-11.668-13.364-11.668h-125.299c-6.505 0-11.961 4.113-13.13 9.507 1.367-.415 2.833-.641 4.357-.641h125.299c7.351 0 13.364 5.25 13.364 11.668z" fill="#9c9c9e"/></g></g><g><g><path d="m63.761 396.542h384.479c26.268 0 47.76 21.492 47.76 47.76 0 26.268-21.492 47.76-47.76 47.76h-384.479c-26.268 0-47.76-21.492-47.76-47.76-.001-26.268 21.491-47.76 47.76-47.76z" fill="#9facba"/><path d="m438.239 396.542h10c26.268 0 47.76 21.492 47.76 47.76 0 26.268-21.492 47.76-47.76 47.76h-10c26.268 0 47.76-21.492 47.76-47.76.001-26.268-21.491-47.76-47.76-47.76z" fill="#8d9ca8"/></g><g><circle cx="63.761" cy="444.302" fill="#8192a5" r="25.248"/><path d="m63.761 419.054c13.944 0 25.248 11.304 25.248 25.248s-11.304 25.248-25.248 25.248c-1.712 0-3.384-.171-5-.496 11.549-2.32 20.248-12.52 20.248-24.752s-8.699-22.432-20.248-24.752c1.616-.325 3.288-.496 5-.496z" fill="#65788e"/></g><g><ellipse cx="191.92" cy="444.302" fill="#8192a5" rx="25.248" ry="25.248" transform="matrix(.16 -.987 .987 .16 -277.387 562.575)"/><path d="m191.92 419.054c13.944 0 25.248 11.304 25.248 25.248s-11.304 25.248-25.248 25.248c-1.712 0-3.384-.171-5-.496 11.549-2.32 20.248-12.52 20.248-24.752s-8.699-22.432-20.248-24.752c1.616-.325 3.288-.496 5-.496z" fill="#65788e"/></g><g><ellipse cx="320.08" cy="444.302" fill="#8192a5" rx="25.248" ry="25.248" transform="matrix(.924 -.383 .383 .924 -145.662 156.31)"/><path d="m320.08 419.054c13.944 0 25.248 11.304 25.248 25.248s-11.304 25.248-25.248 25.248c-1.712 0-3.384-.171-5-.496 11.549-2.32 20.248-12.52 20.248-24.752s-8.699-22.432-20.248-24.752c1.616-.325 3.288-.496 5-.496z" fill="#65788e"/></g><g><circle cx="448.24" cy="444.302" fill="#8192a5" r="25.248"/><path d="m448.24 419.054c13.944 0 25.248 11.304 25.248 25.248s-11.304 25.248-25.248 25.248c-1.712 0-3.384-.171-5-.496 11.549-2.32 20.248-12.52 20.248-24.752s-8.699-22.432-20.248-24.752c1.616-.325 3.288-.496 5-.496z" fill="#65788e"/></g></g><g><path d="m162.207 82.216c10.44 2.484 20.411 6.624 29.549 12.25l19.201-8.528 22.63 22.63-8.525 19.195c5.628 9.14 9.768 19.114 12.253 29.556l19.589 7.54v32.003l-19.594 7.542c-2.485 10.44-6.624 20.411-12.25 29.549l8.528 19.201-22.63 22.63-19.195-8.525c-9.14 5.628-19.114 9.767-29.556 12.252l-7.54 19.59h-32.004l-7.542-19.594c-10.44-2.485-20.411-6.624-29.549-12.25l-19.201 8.527-22.63-22.629 8.525-19.195c-5.628-9.14-9.767-19.115-12.252-29.557l-19.59-7.54v-32.003l19.592-7.541c2.484-10.441 6.624-20.413 12.251-29.551l-8.527-19.199 22.629-22.631 19.201 8.528c9.138-5.626 19.109-9.765 29.549-12.25l7.542-19.594h32.003z" fill="#ffe177"/><path d="m204.508 88.802 6.448-2.864 22.631 22.63-8.525 19.195c5.628 9.139 9.767 19.114 12.252 29.557l19.589 7.54v32.003l-19.594 7.542c-2.484 10.44-6.624 20.411-12.25 29.549l8.528 19.2-22.63 22.631-6.448-2.864 19.766-19.767-8.527-19.2c5.626-9.138 9.766-19.109 12.25-29.549l19.594-7.542v-32.003l-19.589-7.54c-2.485-10.442-6.624-20.417-12.252-29.557l8.525-19.195zm-141.002 0 2.863-2.864 19.201 8.528c-1.357.752-2.698 1.535-4.021 2.35zm98.701-6.586c10.44 2.484 20.411 6.624 29.549 12.25l-5.291 2.35c-9.138-5.626-23.13-12.116-33.57-14.6l-7.542-19.594h9.312zm-76.636 185.041-19.2 8.528-2.864-2.864 18.044-8.014c1.322.815 2.663 1.598 4.02 2.35zm106.191.003c-9.14 5.628-19.114 9.767-29.557 12.252l-7.54 19.59h-9.311l7.54-19.59c10.442-2.485 24.437-8.974 33.577-14.602z" fill="#ffd064"/><ellipse cx="138.663" cy="180.861" fill="#eceff1" rx="60.302" ry="60.302" transform="matrix(.707 -.707 .707 .707 -87.275 151.022)"/><path d="m138.663 120.559c1.373 0 2.734.05 4.084.141-31.398 2.101-56.218 28.231-56.218 60.161s24.82 58.061 56.218 60.161c-1.35.09-2.711.141-4.084.141-33.303 0-60.302-26.999-60.302-60.302s26.999-60.302 60.302-60.302z" fill="#d1d1d6"/></g></g><path d="m138.658 135.926c26.374 0 47.82 21.451 47.82 47.81 0 26.364-21.446 47.815-47.82 47.815-26.359 0-47.81-21.451-47.81-47.815 0-26.359 21.45-47.81 47.81-47.81zm0 111.626c35.193 0 63.821-28.628 63.821-63.816 0-35.183-28.628-63.811-63.821-63.811-35.179 0-63.806 28.628-63.806 63.811-.001 35.189 28.627 63.816 63.806 63.816zm156.114-201.185c0-6.076 4.928-10.998 10.999-10.998 6.08 0 10.998 4.923 10.998 10.998 0 6.076-4.918 10.998-10.998 10.998-6.072 0-10.999-4.922-10.999-10.998zm153.469 418.061c-9.511 0-17.253-7.742-17.253-17.253 0-9.506 7.742-17.248 17.253-17.248 9.507 0 17.248 7.742 17.248 17.248 0 9.511-7.741 17.253-17.248 17.253zm0-50.502c-18.331 0-33.254 14.919-33.254 33.249 0 18.331 14.923 33.254 33.254 33.254s33.25-14.923 33.25-33.254-14.919-33.249-33.25-33.249zm-128.159 50.502c-9.511 0-17.253-7.742-17.253-17.253 0-9.506 7.742-17.248 17.253-17.248 9.507 0 17.248 7.742 17.248 17.248 0 9.511-7.741 17.253-17.248 17.253zm0-50.502c-18.33 0-33.254 14.919-33.254 33.249 0 18.331 14.924 33.254 33.254 33.254 18.331 0 33.249-14.923 33.249-33.254s-14.918-33.249-33.249-33.249zm-128.159 50.502c-9.511 0-17.253-7.742-17.253-17.253 0-9.506 7.742-17.248 17.253-17.248 9.507 0 17.248 7.742 17.248 17.248 0 9.511-7.742 17.253-17.248 17.253zm0-50.502c-18.331 0-33.254 14.919-33.254 33.249 0 18.331 14.923 33.254 33.254 33.254 18.326 0 33.244-14.923 33.244-33.254s-14.918-33.249-33.244-33.249zm-128.164 50.502c-9.511 0-17.248-7.742-17.248-17.253 0-9.506 7.737-17.248 17.248-17.248s17.253 7.742 17.253 17.248c0 9.511-7.742 17.253-17.253 17.253zm0-50.502c-18.331 0-33.249 14.919-33.249 33.249 0 18.331 14.918 33.254 33.249 33.254 18.33 0 33.249-14.923 33.249-33.254s-14.919-33.249-33.249-33.249zm90.919 58.503c0 4.419-3.577 8-7.996 8h-37.682c-4.419 0-8.001-3.581-8.001-8s3.581-8.001 8.001-8.001h37.683c4.418 0 7.995 3.581 7.995 8.001zm128.164 0c0 4.419-3.581 8-8.001 8h-37.683c-4.419 0-7.996-3.581-7.996-8s3.577-8.001 7.996-8.001h37.683c4.42 0 8.001 3.581 8.001 8.001zm128.159-50.503c0 4.419-3.581 8.001-8 8.001h-37.678c-4.424 0-8.001-3.582-8.001-8.001s3.577-8 8.001-8h37.677c4.42 0 8.001 3.581 8.001 8zm-256.323 0c0 4.419-3.577 8.001-7.996 8.001h-37.682c-4.419 0-8.001-3.582-8.001-8.001s3.581-8 8.001-8h37.683c4.418 0 7.995 3.581 7.995 8zm256.323 50.503c0 4.419-3.581 8-8 8h-37.678c-4.424 0-8.001-3.581-8.001-8s3.577-8.001 8.001-8.001h37.677c4.42 0 8.001 3.581 8.001 8.001zm-128.159-50.503c0 4.419-3.581 8.001-8.001 8.001h-37.683c-4.419 0-7.996-3.582-7.996-8.001s3.577-8 7.996-8h37.683c4.42 0 8.001 3.581 8.001 8zm165.399 65.012c21.917 0 39.758-17.832 39.758-39.763 0-21.917-17.841-39.758-39.758-39.758h-384.482c-21.917 0-39.758 17.841-39.758 39.758 0 21.931 17.841 39.763 39.758 39.763zm-388.572-101.08c0-3.059 2.49-5.553 5.549-5.553h127.1c3.064 0 5.553 2.494 5.553 5.553v5.558h-134.112c-1.379 0-2.739.071-4.09.17zm19.648-104.195 5.742-2.551c7.61 4.287 15.672 7.634 24.072 9.982l6.071 15.751c1.177 3.092 4.146 5.135 7.459 5.135h31.997c.391 0 .762-.033 1.129-.09l14.401 54.418h-85.929zm-26.034-27.404 14.858 14.862 14.18-6.301c2.409-1.068 5.2-.88 7.45.503 8.429 5.196 17.592 8.989 27.202 11.276 2.569.612 4.668 2.447 5.61 4.909l5.567 14.471h21.023l5.567-14.467c.951-2.461 3.049-4.297 5.61-4.909 9.624-2.287 18.782-6.085 27.221-11.281 2.24-1.384 5.031-1.572 7.44-.499l14.17 6.297 14.862-14.862-6.292-14.18c-1.068-2.414-.889-5.196.499-7.445 5.191-8.438 8.989-17.592 11.281-27.207.612-2.565 2.438-4.664 4.899-5.61l14.471-5.572v-21.018l-14.462-5.567c-2.456-.946-4.297-3.045-4.909-5.615-2.292-9.615-6.081-18.773-11.281-27.211-1.388-2.245-1.567-5.031-.499-7.441l6.292-14.175-14.862-14.861-14.18 6.297c-2.41 1.073-5.191.885-7.441-.499-8.438-5.196-17.587-8.989-27.211-11.281-2.56-.607-4.659-2.447-5.61-4.909l-5.567-14.467h-21.023l-5.567 14.467c-.941 2.461-3.04 4.302-5.61 4.909-9.61 2.292-18.773 6.085-27.211 11.281-2.24 1.384-5.031 1.572-7.44.499l-14.18-6.297-14.858 14.862 6.297 14.18c1.073 2.409.88 5.196-.499 7.44-5.2 8.438-8.989 17.592-11.281 27.207-.612 2.565-2.452 4.668-4.908 5.615l-14.472 5.572v21.018l14.472 5.563c2.456.951 4.287 3.05 4.899 5.615 2.292 9.624 6.09 18.778 11.29 27.211 1.379 2.25 1.572 5.036.499 7.445zm252.487-229.197c-11.742 0-21.3 9.558-21.3 21.305s9.558 21.305 21.3 21.305c11.751 0 21.31-9.558 21.31-21.305s-9.558-21.305-21.31-21.305zm67.05 100.67-51.759-45.354c7.488-3.379 13.671-9.149 17.559-16.34l46.191 49.571c-4.979 2.913-9.13 7.106-11.991 12.123zm28.5-.593c-9.248 0-16.777 7.525-16.777 16.777 0 9.248 7.53 16.773 16.777 16.773 9.248 0 16.778-7.525 16.778-16.773 0-9.251-7.53-16.777-16.778-16.777zm46.949 96.496c0 12.043-4.622 23.409-12.57 31.974v-32.76c0-2.861-1.53-5.501-4-6.932l-26.938-15.554c-1.242-.711-2.621-1.068-4-1.068s-2.772.358-4.001 1.068l-26.938 15.554c-2.48 1.431-4 4.071-4 6.932v31.475c-7.262-8.424-11.441-19.296-11.441-30.689 0-25.884 21.06-46.944 46.939-46.944 25.889 0 46.949 21.06 46.949 46.944zm-209.03-115.848-22.628-22.627c-.922-.922-2.033-1.572-3.21-1.948l55.128-32.736c.729 12.937 8.081 24.129 18.712 30.242l-48.361 40.53 2.019-4.556c1.342-3.026.684-6.566-1.66-8.905zm25.573 217.102h12.109v26.491c0 4.419 3.577 7.996 8 7.996h28.299c4.419 0 8-3.577 8-7.996v-26.491h12.118v68.527h-68.527v-68.527zm28.11 0v18.491h12.298v-18.491zm90.877 0h12.114v26.491c0 4.419 3.586 7.996 7.996 7.996h28.312c4.41 0 8.001-3.577 8.001-7.996v-26.491h12.109v68.697c-1.351-.099-2.711-.17-4.09-.17h-64.442zm28.11 0v18.491h12.311v-18.491zm52.38 70.89h4.038v-78.89c0-4.419-3.577-8-7.996-8h-84.533c-4.419 0-8 3.581-8 8v76.527h-18.458v-76.527c0-4.419-3.581-8-8.001-8h-84.528c-4.424 0-8.001 3.581-8.001 8v76.527h-34.939v-5.558c0-11.878-9.671-21.549-21.554-21.549h-5.577l-19.352-73.125.8-2.085c8.4-2.349 16.472-5.695 24.081-9.982l15.441 6.857c3.017 1.341 6.556.682 8.899-1.657l22.628-22.627c2.344-2.344 3.002-5.883 1.661-8.904l-6.862-15.441c4.292-7.61 7.633-15.681 9.982-24.077l15.761-6.062c3.078-1.191 5.12-4.156 5.12-7.469v-32.002c0-3.308-2.043-6.278-5.12-7.464l-15.752-6.062c-1.36-4.843-3.059-9.573-5.059-14.17l64.362-53.924 65.237 57.166c.32 7.803 3.379 14.904 8.241 20.378-22.571 9.573-38.431 31.955-38.431 57.976 0 22.383 12.043 43.264 31.428 54.498 2.471 1.435 5.52 1.435 8 .004 2.48-1.426 4.01-4.066 4.01-6.927v-43.744l18.943-10.937 18.938 10.937v44.38c0 2.824 1.492 5.445 3.92 6.88 1.252.743 2.664 1.12 4.081 1.12 1.322 0 2.64-.329 3.84-.984 20.19-11.069 32.732-32.228 32.732-55.227 0-26.021-15.869-48.403-38.44-57.976 5.139-5.793 8.269-13.412 8.269-21.743 0-17.672-14.048-32.115-31.569-32.755l-59.477-63.835c-.551-20.086-17.06-36.266-37.283-36.266-13.262 0-24.919 6.965-31.541 17.422l-94.242 55.952c-3.85-1.577-7.779-2.932-11.798-4.057l-6.057-15.752c-1.191-3.092-4.16-5.13-7.473-5.13h-31.997c-3.313 0-6.283 2.038-7.459 5.13l-6.071 15.752c-8.4 2.353-16.462 5.699-24.072 9.982l-15.436-6.857c-3.031-1.341-6.574-.682-8.914 1.657l-22.627 22.627c-2.344 2.344-3.002 5.883-1.652 8.904l6.852 15.436c-4.283 7.615-7.633 15.681-9.982 24.077l-15.752 6.066c-3.087 1.191-5.13 4.156-5.13 7.464v32.007c0 3.309 2.042 6.273 5.13 7.464l15.752 6.062c2.348 8.405 5.699 16.471 9.982 24.081l-6.852 15.436c-1.351 3.026-.692 6.56 1.652 8.904l22.627 22.627c.833.824 1.803 1.426 2.852 1.822l4.678 78.17h-3.021c-11.879 0-21.55 9.671-21.55 21.549v9.318c-20.849 8.084-35.668 28.344-35.668 52.002 0 30.75 25.009 55.764 55.759 55.764h384.482c30.75 0 55.759-25.014 55.759-55.764 0-25.169-16.773-46.488-39.711-53.396z" fill="#242222"/></g></svg>