<?xml version="1.0" encoding="iso-8859-1"?>
<!-- Generator: Adobe Illustrator 27.2.0, SVG Export Plug-In . SVG Version: 6.00 Build 0)  -->
<svg version="1.1" id="Capa_1" xmlns="http://www.w3.org/2000/svg" xmlns:xlink="http://www.w3.org/1999/xlink" x="0px" y="0px"
	 viewBox="0 0 510.005 510.005" style="enable-background:new 0 0 510.005 510.005;" xml:space="preserve">
<g>
	<g>
		<path style="fill:#67CCD1;" d="M369.336,459.166l-81.667-40.833V379.86l-0.009-0.809c-10.005,4.256-21.046,6.614-32.658,6.614
			c-11.612,0-22.654-2.358-32.659-6.615l-0.007,0.809v38.472l-81.667,40.833c-15.665,7.833-24.5,23.319-24.5,40.833
			c0,0.003,277.667,0.002,277.667,0C393.836,482.485,385.001,466.998,369.336,459.166z"/>
		<path style="fill:#1A8DC2;" d="M300.368,412.299l-12.699-6.35v-38.472l-0.009-0.809c-10.005,4.256-21.046,6.614-32.658,6.614
			c-11.612,0-22.654-2.358-32.659-6.615l-0.007,0.809v38.472l-15.346,7.673c12.967,9.067,28.736,14.403,45.759,14.403
			C270.591,428.025,287.065,422.177,300.368,412.299z"/>
		<path style="fill:#FDBEB9;" d="M174.788,320.394c7.205,37.721,40.401,65.272,80.215,65.272s73.01-27.551,80.215-65.272H174.788z"
			/>
		<path style="fill:#FDCB50;" d="M174.312,319.514c-1.676,2.504-33.643,50.674-33.643,82.485c0,16.333,16.333,49,16.333,49
			l65.333-32.667v-39.284C198.521,368.915,179.849,345.594,174.312,319.514z"/>
		<path style="fill:#FDCB50;" d="M336.003,319.149H336c-5.162,26.627-24.098,49.588-48.33,59.898v39.284l65.333,32.667
			c0,0,16.333-32.667,16.333-49C369.336,369.332,336.003,319.149,336.003,319.149z"/>
		<polygon style="fill:#67CCD1;" points="402.003,10.001 467.336,47.721 467.336,123.161 402.003,160.881 336.669,123.161 
			336.669,47.721 		"/>
		<polygon style="fill:#1A8DC2;" points="402.003,160.881 402.003,85.441 467.336,47.721 467.336,123.161 		"/>
		<polygon style="fill:#FFFFFF;" points="402.003,10.001 467.336,47.721 402.003,85.441 336.669,47.721 		"/>
		<path style="fill:#FDCB50;" d="M255.003,173.332c-39.813,0-73.01,27.551-80.215,65.272h160.429
			C328.013,200.884,294.816,173.332,255.003,173.332z"/>
		<path style="fill:#FDCB50;" d="M59.003,271.334l18.484,29.858c0.083,0.133,0.18,0.257,0.291,0.367
			c0.11,0.111,0.233,0.208,0.367,0.291l29.858,18.484l-29.858,18.484c-0.133,0.082-0.256,0.18-0.367,0.291
			c-0.111,0.11-0.208,0.234-0.291,0.367l-18.484,29.858l-18.484-29.858c-0.083-0.133-0.18-0.256-0.291-0.367
			c-0.11-0.111-0.234-0.208-0.367-0.291l-29.858-18.484l29.858-18.484c0.133-0.082,0.257-0.18,0.367-0.291
			c0.111-0.11,0.208-0.234,0.291-0.367L59.003,271.334z"/>
		<path style="fill:#BC9AF4;" d="M353.003,263.166c0-6.497-2.582-12.729-7.176-17.324c-4.595-4.594-10.827-7.176-17.324-7.176h-147
			c-6.497,0-12.729,2.582-17.324,7.176c-4.595,4.595-7.176,10.827-7.176,17.324v32.667c0,6.498,2.581,12.729,7.176,17.324
			c4.594,4.595,10.826,7.176,17.324,7.176h147c6.497,0,12.729-2.581,17.324-7.176c4.595-4.595,7.176-10.826,7.176-17.324V263.166z"
			/>
		<path style="fill:#6864F7;" d="M271.007,301.019c-41.637,0-77.25-25.779-91.756-62.247c-5.671,0.524-11.011,3.008-15.072,7.069
			c-4.595,4.595-7.176,10.827-7.176,17.324v32.667c0,6.498,2.581,12.729,7.176,17.324c4.594,4.595,10.826,7.176,17.324,7.176h147
			c6.497,0,12.729-2.581,17.324-7.176c4.595-4.595,7.176-10.826,7.176-17.324v-32.667c0-1.725-0.187-3.43-0.541-5.091
			C334.674,284.006,304.829,301.019,271.007,301.019z"/>
		
			<ellipse transform="matrix(0.9292 -0.3697 0.3697 0.9292 -23.1339 53.049)" style="fill:#FD7DA0;" cx="126.849" cy="86.886" rx="57.167" ry="57.167"/>
	</g>
	<g>
		<path style="fill:#FDCB50;" d="M459.169,245.001h-14.5v-22.667c0-5.523-4.477-10-10-10c-5.523,0-10,4.477-10,10v22.667h-14.5
			c-5.523,0-10,4.478-10,10s4.477,10,10,10h14.5v22.667c0,5.523,4.477,10,10,10c5.523,0,10-4.477,10-10v-22.667h14.5
			c5.523,0,10-4.478,10-10S464.692,245.001,459.169,245.001z"/>
		<path style="fill:#FDCB50;" d="M500.003,359.334h-6.334v-14.5c0-5.522-4.477-10-10-10c-5.523,0-10,4.478-10,10v14.5h-6.333
			c-5.523,0-10,4.478-10,10s4.477,10,10,10h6.333v14.5c0,5.522,4.477,10,10,10c5.523,0,10-4.478,10-10v-14.5h6.334
			c5.523,0,10-4.478,10-10S505.525,359.334,500.003,359.334z"/>
		<path style="fill:#052A75;" d="M373.808,450.221l-7.604-3.802c5.2-11.62,13.132-31.467,13.132-44.421
			c0-26.779-19.342-62.582-29.288-79.224c8.182-6.519,12.992-16.475,12.955-26.942c0,0,0-32.667,0-32.667
			c0.138-12.821-7.485-25.092-18.918-30.788c-8.473-36.694-41.653-65.03-79.174-68.499c-1.765-11.557-18.055-11.549-19.816,0
			c-37.521,3.469-70.702,31.807-79.174,68.499c-11.435,5.699-19.055,17.965-18.918,30.788c0,0,0,32.667,0,32.667
			c-0.041,10.593,4.902,20.685,13.26,27.18c-10.083,16.614-29.594,52.221-29.594,78.986c0,12.954,7.932,32.8,13.132,44.421
			l-7.604,3.802c-18.803,9.402-30.028,28.01-30.028,49.777c0,4.02,2.836,9.999,10.649,10c66.543,0.02,208.686-0.011,276.063,0
			c10.83-0.001,10.955-9.9,10.955-10C403.836,478.231,392.611,459.624,373.808,450.221z M348.298,437.466l-50.629-25.314v-26.774
			c17.874-9.059,32.554-24.474,40.789-42.608c9.727,17.768,20.878,42.277,20.878,59.229
			C359.336,409.931,353.617,425.426,348.298,437.466z M187.984,330.333h134.038C298.83,390.43,211.154,390.397,187.984,330.333z
			 M167.003,263.166c-0.157-7.793,6.704-14.662,14.5-14.5c0,0,147,0,147,0c7.789-0.159,14.664,6.706,14.5,14.5
			c0,0,0,32.667,0,32.667c0.157,7.791-6.704,14.662-14.5,14.5c0,0-147,0-147,0c-7.787,0.16-14.664-6.705-14.5-14.5
			C167.003,295.833,167.003,263.166,167.003,263.166z M322.021,228.666h-57.018v-44.643
			C290.944,187.587,312.845,204.814,322.021,228.666z M245.003,184.023v44.643h-57.019
			C197.16,204.814,219.061,187.587,245.003,184.023z M150.669,401.999c0-16.889,11.221-41.217,21.035-58.885
			c8.258,17.983,22.872,33.263,40.632,42.264v26.774l-50.629,25.314C156.388,425.426,150.669,409.931,150.669,401.999z M127.446,490
			c2.541-9.579,8.766-17.425,17.696-21.89l81.667-40.833c3.388-1.694,5.528-5.156,5.528-8.944v-25.46
			c14.672,3.709,30.661,3.709,45.333,0v25.46c0,3.788,2.14,7.25,5.528,8.944l81.667,40.833c8.93,4.465,15.155,12.31,17.696,21.89
			C337.729,490,172.253,490,127.446,490z"/>
		<path style="fill:#052A75;" d="M59.003,379.334c-3.463,0-6.68-1.792-8.502-4.736l-17.498-28.264L4.739,328.836
			c-2.944-1.823-4.736-5.04-4.736-8.503s1.792-6.68,4.736-8.503l28.264-17.497L50.5,266.07c1.823-2.944,5.039-4.736,8.502-4.736
			c3.463,0,6.68,1.792,8.502,4.736l17.498,28.264l28.264,17.497c2.944,1.823,4.736,5.04,4.736,8.503s-1.792,6.68-4.736,8.503
			l-28.263,17.496l-17.498,28.265C65.682,377.542,62.466,379.334,59.003,379.334z M47.301,332.04
			c1.171,0.708,10.668,16.84,11.702,18.296c1.08-1.531,10.497-17.536,11.702-18.296c0.666-1.142,16.879-10.698,18.3-11.706
			c-1.554-1.096-17.532-10.488-18.314-11.719c-1.143-0.683-10.675-16.856-11.688-18.283c-1.112,1.576-10.478,17.525-11.735,18.33
			c-0.712,1.152-16.819,10.646-18.267,11.672C30.518,321.408,46.545,330.832,47.301,332.04z M32.016,344.74
			c0.004,0.007,0.008,0.013,0.012,0.02L32.016,344.74z M85.998,344.726l-0.013,0.02C85.99,344.74,85.994,344.733,85.998,344.726z
			 M85.989,295.928H86H85.989z M34.597,293.346c-0.011,0.007-0.022,0.014-0.033,0.021L34.597,293.346z M83.399,293.341l0.013,0.008
			C83.408,293.346,83.404,293.344,83.399,293.341z"/>
		<path style="fill:#052A75;" d="M402.003,170.881c-1.727,0-3.453-0.446-5-1.34l-65.334-37.721c-3.094-1.786-5-5.088-5-8.66V47.721
			c0-3.572,1.906-6.874,5-8.66L397.003,1.34c3.094-1.787,6.906-1.787,10,0l65.333,37.721c3.094,1.786,5,5.088,5,8.66v75.439
			c0,3.572-1.906,6.874-5,8.66l-65.333,37.721C405.456,170.435,403.729,170.881,402.003,170.881z M346.669,117.387l55.334,31.947
			l55.333-31.947V53.495l-55.333-31.947l-55.334,31.947V117.387z"/>
		<path style="fill:#052A75;" d="M191.627,6.758c-10.176-11.308-34.524-6.965-63.023,13.005
			c-38.059-1.162-69.801,30.373-68.888,68.439c-20.71,29.862-25.677,52.743-13.977,64.443c13.301,12.509,34.244,3.816,51.251-5.62
			c57.683,28.416,118.593-32.94,89.797-90.393C198.265,36.065,202.187,17.319,191.627,6.758z M177.457,20.869
			c0.597,0.865,1.285,6.186-3.94,17.779c-5.056-4.893-10.869-9.007-17.255-12.131C170.004,19.645,176.519,20.236,177.457,20.869z
			 M126.849,39.719c14.619,0,27.705,6.685,36.363,17.159c-15.348,23.39-42.767,50.926-66.155,66.542
			C63.044,95.689,82.434,39.923,126.849,39.719z M59.91,138.536c-1.067-1.546-0.676-9.165,6.337-22.709
			c3.226,6.727,7.544,12.832,12.716,18.096C66.439,139.818,60.753,139.106,59.91,138.536z M174.016,86.885
			c0.329,29.295-27.631,52.224-56.267,46.277c20.446-15.518,39.967-35.123,55.331-55.634
			C173.692,80.554,174.016,83.682,174.016,86.885z"/>
	</g>
</g>
<g>
</g>
<g>
</g>
<g>
</g>
<g>
</g>
<g>
</g>
<g>
</g>
<g>
</g>
<g>
</g>
<g>
</g>
<g>
</g>
<g>
</g>
<g>
</g>
<g>
</g>
<g>
</g>
<g>
</g>
</svg>
