<?xml version="1.0" encoding="UTF-8" standalone="no"?>
<!-- Created with Inkscape (http://www.inkscape.org/) -->

<svg
   version="1.1"
   id="svg3015"
   xml:space="preserve"
   width="682.66669"
   height="682.66669"
   viewBox="0 0 682.66669 682.66669"
   xmlns="http://www.w3.org/2000/svg"
   xmlns:svg="http://www.w3.org/2000/svg"><defs
     id="defs3019"><clipPath
       clipPathUnits="userSpaceOnUse"
       id="clipPath3029"><path
         d="M 0,512 H 512 V 0 H 0 Z"
         id="path3027" /></clipPath></defs><g
     id="g3021"
     transform="matrix(1.3333333,0,0,-1.3333333,0,682.66667)"><g
       id="g3023"><g
         id="g3025"
         clip-path="url(#clipPath3029)"><g
           id="g3031"
           transform="translate(9.999,435.999)"><path
             d="m 0,0 h 492.001 v 18.826 c 0,11.647 -9.529,21.176 -21.176,21.176 H 21.176 C 9.529,40.002 0,30.473 0,18.826 Z"
             style="fill:#b5bbc9;fill-opacity:1;fill-rule:evenodd;stroke:none"
             id="path3033" /></g><path
           d="M 502,435.999 H 9.999 V 156.003 H 502 Z"
           style="fill:#b0e7f7;fill-opacity:1;fill-rule:evenodd;stroke:none"
           id="path3035" /><g
           id="g3037"
           transform="translate(502.0005,156.0029)"><path
             d="m 0,0 h -492.001 v -18.825 c 0,-11.648 9.529,-21.177 21.176,-21.177 H -286.001 -206 -21.176 C -9.529,-40.002 0,-30.473 0,-18.825 Z"
             style="fill:#b5bbc9;fill-opacity:1;fill-rule:evenodd;stroke:none"
             id="path3039" /></g><g
           id="g3041"
           transform="translate(296,116.001)"><path
             d="m 0,0 h -80.001 l -10,-80 H 10 Z"
             style="fill:#858fa6;fill-opacity:1;fill-rule:evenodd;stroke:none"
             id="path3043" /></g><g
           id="g3045"
           transform="translate(187.7671,324.1836)"><path
             d="M 0,0 68.233,-39.395 136.465,0 68.233,39.394 Z"
             style="fill:#ff6977;fill-opacity:1;fill-rule:evenodd;stroke:none"
             id="path3047" /></g><g
           id="g3049"
           transform="translate(256,284.7891)"><path
             d="M 0,0 -68.233,39.395 V -39.394 L 0,-78.788 Z"
             style="fill:#cbe557;fill-opacity:1;fill-rule:evenodd;stroke:none"
             id="path3051" /></g><g
           id="g3053"
           transform="translate(324.2324,324.1836)"><path
             d="m 0,0 -68.232,-39.395 v -78.788 L 0,-78.788 Z"
             style="fill:#00ccf1;fill-opacity:1;fill-rule:evenodd;stroke:none"
             id="path3055" /></g><g
           id="g3057"
           transform="translate(131.1758,476.001)"><path
             d="m 0,0 h 349.648 c 11.647,0 21.177,-9.529 21.177,-21.177 v -317.646 c 0,-11.648 -9.53,-21.177 -21.177,-21.177 L -100,-360 c -11.647,0 -21.177,9.529 -21.177,21.177 V -21.177 C -121.177,-9.529 -111.647,0 -100,0 h 20"
             style="fill:none;stroke:#000000;stroke-width:20;stroke-linecap:round;stroke-linejoin:round;stroke-miterlimit:22.926;stroke-dasharray:none;stroke-opacity:1"
             id="path3059" /></g><g
           id="g3061"
           transform="translate(205.999,36.001)"><path
             d="M 0,0 10,80 M 140.002,0 H -40.001 m 130.002,80 10,-80"
             style="fill:none;stroke:#000000;stroke-width:20;stroke-linecap:round;stroke-linejoin:round;stroke-miterlimit:22.926;stroke-dasharray:none;stroke-opacity:1"
             id="path3063" /></g><g
           id="g3065"
           transform="translate(461.999,156.0029)"><path
             d="M 0,0 H 40.001 M -452,0 h 372"
             style="fill:none;stroke:#000000;stroke-width:20;stroke-linecap:round;stroke-linejoin:round;stroke-miterlimit:22.926;stroke-dasharray:none;stroke-opacity:1"
             id="path3067" /></g><g
           id="g3069"
           transform="translate(9.999,435.999)"><path
             d="M 0,0 H 492.001"
             style="fill:none;stroke:#000000;stroke-width:20;stroke-linecap:round;stroke-linejoin:round;stroke-miterlimit:22.926;stroke-dasharray:none;stroke-opacity:1"
             id="path3071" /></g><g
           id="g3073"
           transform="translate(91.1719,476.001)"><path
             d="M 0,0 H 0.008"
             style="fill:none;stroke:#000000;stroke-width:20;stroke-linecap:round;stroke-linejoin:round;stroke-miterlimit:2.613;stroke-dasharray:none;stroke-opacity:1"
             id="path3075" /></g><g
           id="g3077"
           transform="translate(421.9956,156.0029)"><path
             d="M 0,0 H 0.007"
             style="fill:none;stroke:#000000;stroke-width:20;stroke-linecap:round;stroke-linejoin:round;stroke-miterlimit:2.613;stroke-dasharray:none;stroke-opacity:1"
             id="path3079" /></g><g
           id="g3081"
           transform="translate(255.9995,363.5781)"><path
             d="m 0,0 68.232,-39.395 v -78.788 L 0,-157.577 l -68.232,39.394 v 78.788 z"
             style="fill:none;stroke:#000000;stroke-width:20;stroke-linecap:round;stroke-linejoin:round;stroke-miterlimit:22.926;stroke-dasharray:none;stroke-opacity:1"
             id="path3083" /></g><g
           id="g3085"
           transform="translate(322.4048,323.1279)"><path
             d="M 0,0 -66.405,-38.339 -133.004,0.112"
             style="fill:none;stroke:#000000;stroke-width:20;stroke-linecap:round;stroke-linejoin:round;stroke-miterlimit:22.926;stroke-dasharray:none;stroke-opacity:1"
             id="path3087" /></g><g
           id="g3089"
           transform="translate(255.9995,283.1113)"><path
             d="M 0,0 V -75.433"
             style="fill:none;stroke:#000000;stroke-width:20;stroke-linecap:round;stroke-linejoin:round;stroke-miterlimit:22.926;stroke-dasharray:none;stroke-opacity:1"
             id="path3091" /></g><g
           id="g3093"
           transform="translate(255.9995,386.001)"><path
             d="M 0,0 V -22.423"
             style="fill:none;stroke:#000000;stroke-width:20;stroke-linecap:round;stroke-linejoin:round;stroke-miterlimit:22.926;stroke-dasharray:none;stroke-opacity:1"
             id="path3095" /></g><g
           id="g3097"
           transform="translate(168.3472,234.1836)"><path
             d="M 0,0 19.42,11.211"
             style="fill:none;stroke:#000000;stroke-width:20;stroke-linecap:round;stroke-linejoin:round;stroke-miterlimit:22.926;stroke-dasharray:none;stroke-opacity:1"
             id="path3099" /></g><g
           id="g3101"
           transform="translate(343.6514,234.1836)"><path
             d="M 0,0 -19.419,11.212"
             style="fill:none;stroke:#000000;stroke-width:20;stroke-linecap:round;stroke-linejoin:round;stroke-miterlimit:22.926;stroke-dasharray:none;stroke-opacity:1"
             id="path3103" /></g></g></g></g></svg>
