<svg clip-rule="evenodd" fill-rule="evenodd" height="512" image-rendering="optimizeQuality" shape-rendering="geometricPrecision" text-rendering="geometricPrecision" viewBox="0 0 512 512" width="512" xmlns="http://www.w3.org/2000/svg" xmlns:xodm="http://www.corel.com/coreldraw/odm/2003"><g id="Layer_x0020_1"><path d="m303.57 456.99h-95.14c-5.54 0-10.03-3.23-10.03-7.22v-57.08c0-3.99 4.49-7.22 10.03-7.22h95.14c5.54 0 10.03 3.23 10.03 7.22v57.08c0 3.99-4.5 7.22-10.03 7.22z" fill="#71838d"/><path d="m22.57 331.48h466.86v-285.09c0-19.15-15.59-34.74-34.74-34.74-5.72 0-391.66 0-397.38 0-19.15 0-34.74 15.59-34.74 34.74z" fill="#e6e7e8"/><path d="m386.49 512h-260.98c-3.99 0-7.22-3.23-7.22-7.22v-27.51c0-19.15 15.57-34.72 34.72-34.72h205.98c19.14 0 34.72 15.57 34.72 34.72v27.51c0 3.99-3.23 7.22-7.22 7.22z" fill="#7d98a6"/><path d="m451.22 399.91h-390.44c-26.79 0-48.58-21.79-48.58-48.57v-302.76c0-26.79 21.79-48.58 48.58-48.58h390.44c26.79 0 48.58 21.79 48.58 48.58v287.24.05.04.13 15.3c0 26.78-21.79 48.57-48.58 48.57zm-390.44-385.46c-18.82 0-34.13 15.31-34.13 34.13v280.11h458.7v-280.11c0-18.82-15.31-34.13-34.13-34.13-130.15 0-260.29 0-390.44 0z" fill="#889fac"/><path d="m300.28 372.92h-88.56c-3.07 0-5.56-3.23-5.56-7.22s2.49-7.22 5.56-7.22h88.56c3.07 0 5.56 3.23 5.56 7.22s-2.49 7.22-5.56 7.22z" fill="#fefefe"/><path d="m458.98 292.51h-405.96c-3.16 0-5.72-2.57-5.72-5.72v-231.27c0-3.16 2.56-5.72 5.72-5.72h405.96c3.16 0 5.72 2.56 5.72 5.72v231.27c0 3.15-2.56 5.72-5.72 5.72z" fill="#ed5a79"/><path d="m47.3 176.87v-11.43h66.26c3.16 0 5.72 2.56 5.72 5.71 0 3.16-2.56 5.72-5.72 5.72z" fill="#f49db0"/><path d="m464.7 165.44v11.43h-66.27c-3.15 0-5.71-2.56-5.71-5.72 0-3.15 2.56-5.71 5.71-5.71z" fill="#f49db0"/><path d="m404.15 292.51h-11.43v-242.71h11.43zm-284.87 0h-11.43v-242.71h11.43z" fill="#f49db0"/><g fill="#fefefe"><path d="m93.22 98.95h-19.86c-3.15 0-5.71-2.56-5.71-5.71 0-3.16 2.56-5.72 5.71-5.72h19.86c3.15 0 5.71 2.56 5.71 5.72 0 3.15-2.56 5.71-5.71 5.71z"/><path d="m93.22 139.15h-19.86c-3.15 0-5.71-2.56-5.71-5.71 0-3.16 2.56-5.72 5.71-5.72h19.86c3.15 0 5.71 2.56 5.71 5.72 0 3.15-2.56 5.71-5.71 5.71z"/><path d="m93.22 208.88h-19.86c-3.15 0-5.71-2.56-5.71-5.72 0-3.15 2.56-5.71 5.71-5.71h19.86c3.15 0 5.71 2.56 5.71 5.71 0 3.16-2.56 5.72-5.71 5.72z"/><path d="m93.22 234.69h-19.86c-3.15 0-5.71-2.56-5.71-5.72s2.56-5.72 5.71-5.72h19.86c3.15 0 5.71 2.56 5.71 5.72s-2.56 5.72-5.71 5.72z"/><path d="m93.22 260.5h-19.86c-3.15 0-5.71-2.57-5.71-5.72 0-3.16 2.56-5.72 5.71-5.72h19.86c3.15 0 5.71 2.56 5.71 5.72 0 3.15-2.56 5.72-5.71 5.72z"/><path d="m438.64 98.95h-19.86c-3.15 0-5.71-2.56-5.71-5.71 0-3.16 2.56-5.72 5.71-5.72h19.86c3.15 0 5.71 2.56 5.71 5.72 0 3.15-2.56 5.71-5.71 5.71z"/><path d="m438.64 139.15h-19.86c-3.15 0-5.71-2.56-5.71-5.71 0-3.16 2.56-5.72 5.71-5.72h19.86c3.15 0 5.71 2.56 5.71 5.72 0 3.15-2.56 5.71-5.71 5.71z"/><path d="m438.64 208.88h-19.86c-3.15 0-5.71-2.56-5.71-5.72 0-3.15 2.56-5.71 5.71-5.71h19.86c3.15 0 5.71 2.56 5.71 5.71 0 3.16-2.56 5.72-5.71 5.72z"/><path d="m438.64 234.69h-19.86c-3.15 0-5.71-2.56-5.71-5.72s2.56-5.72 5.71-5.72h19.86c3.15 0 5.71 2.56 5.71 5.72s-2.56 5.72-5.71 5.72z"/><path d="m438.64 260.5h-19.86c-3.15 0-5.71-2.57-5.71-5.72 0-3.16 2.56-5.72 5.71-5.72h19.86c3.15 0 5.71 2.56 5.71 5.72 0 3.15-2.56 5.72-5.71 5.72z"/></g><path d="m252.04 261.29c-.95 0-1.91-.23-2.78-.72-1.81-1.01-2.94-2.92-2.94-4.99l.02-85.44c0-2.07 1.13-3.99 2.94-4.99l78.01-43.34c1.78-.99 3.94-.96 5.69.07 1.75 1.04 2.81 2.92 2.8 4.95l-.33 80.6c-.01 1.97-1.03 3.8-2.71 4.84l-77.69 48.17c-.92.57-1.96.85-3.01.85z" fill="#1aa1ff"/><path d="m252.07 261.41c-1.25 0-2.5-.42-3.52-1.22l-70.13-54.85c-1.39-1.09-2.19-2.75-2.19-4.51l-.02-77.18c0-2.1 1.16-4.04 3.02-5.04 1.85-.99 4.1-.89 5.86.28l70.13 46.49c1.59 1.06 2.56 2.85 2.56 4.76l.01 85.08c.01.15.02.31.02.47 0 3.16-2.56 5.71-5.71 5.72-.01 0-.02 0-.03 0z" fill="#46b2ff"/><path d="m257.91 177.43c-1.1 0-2.2-.32-3.16-.95l-75.98-48.06c-1.72-1.14-2.69-3.12-2.54-5.17.14-2.06 1.38-3.88 3.25-4.76l78.01-37.04c1.69-.8 3.67-.72 5.29.21l70.13 40.18c1.79 1.03 2.89 2.94 2.88 5-.02 2.07-1.14 3.96-2.94 4.96l-72.16 44.91c-.87.48-1.82.72-2.78.72z" fill="#85cdff"/></g></svg>