<svg enable-background="new 0 0 128 128" viewBox="0 0 128 128" xmlns="http://www.w3.org/2000/svg"><g id="Layer_1" display="none"><g id="XMLID_1233_" display="inline" fill="none" stroke="#000" stroke-miterlimit="10" stroke-width=".1"><path id="XMLID_1296_" d="m0 0h128v128h-128z"/><path id="XMLID_1295_" d="m0 124h128"/><path id="XMLID_1294_" d="m0 120h128"/><path id="XMLID_1293_" d="m0 116h128"/><path id="XMLID_1292_" d="m0 112h128"/><path id="XMLID_1291_" d="m0 108h128"/><path id="XMLID_1290_" d="m0 104h128"/><path id="XMLID_1289_" d="m0 100h128"/><path id="XMLID_1288_" d="m0 96h128"/><path id="XMLID_1287_" d="m0 92h128"/><path id="XMLID_1286_" d="m0 88h128"/><path id="XMLID_1285_" d="m0 84h128"/><path id="XMLID_1284_" d="m0 80h128"/><path id="XMLID_1283_" d="m0 76h128"/><path id="XMLID_1282_" d="m0 72h128"/><path id="XMLID_1281_" d="m0 68h128"/><path id="XMLID_1280_" d="m0 64h128"/><path id="XMLID_1279_" d="m0 60h128"/><path id="XMLID_1278_" d="m0 56h128"/><path id="XMLID_1277_" d="m0 52h128"/><path id="XMLID_1276_" d="m0 48h128"/><path id="XMLID_1275_" d="m0 44h128"/><path id="XMLID_1274_" d="m0 40h128"/><path id="XMLID_1273_" d="m0 36h128"/><path id="XMLID_1272_" d="m0 32h128"/><path id="XMLID_1271_" d="m0 28h128"/><path id="XMLID_1270_" d="m0 24h128"/><path id="XMLID_1269_" d="m0 20h128"/><path id="XMLID_1268_" d="m0 16h128"/><path id="XMLID_1267_" d="m0 12h128"/><path id="XMLID_1266_" d="m0 8h128"/><path id="XMLID_1265_" d="m0 4h128"/><path id="XMLID_1264_" d="m124 0v128"/><path id="XMLID_1263_" d="m120 0v128"/><path id="XMLID_1262_" d="m116 0v128"/><path id="XMLID_1261_" d="m112 0v128"/><path id="XMLID_1260_" d="m108 0v128"/><path id="XMLID_1259_" d="m104 0v128"/><path id="XMLID_1258_" d="m100 0v128"/><path id="XMLID_1257_" d="m96 0v128"/><path id="XMLID_1256_" d="m92 0v128"/><path id="XMLID_1255_" d="m88 0v128"/><path id="XMLID_1254_" d="m84 0v128"/><path id="XMLID_1253_" d="m80 0v128"/><path id="XMLID_1252_" d="m76 0v128"/><path id="XMLID_1251_" d="m72 0v128"/><path id="XMLID_1250_" d="m68 0v128"/><path id="XMLID_1249_" d="m64 0v128"/><path id="XMLID_1248_" d="m60 0v128"/><path id="XMLID_1247_" d="m56 0v128"/><path id="XMLID_1246_" d="m52 0v128"/><path id="XMLID_1245_" d="m48 0v128"/><path id="XMLID_1244_" d="m44 0v128"/><path id="XMLID_1243_" d="m40 0v128"/><path id="XMLID_1242_" d="m36 0v128"/><path id="XMLID_1241_" d="m32 0v128"/><path id="XMLID_1240_" d="m28 0v128"/><path id="XMLID_1239_" d="m24 0v128"/><path id="XMLID_1238_" d="m20 0v128"/><path id="XMLID_1237_" d="m16 0v128"/><path id="XMLID_1236_" d="m12 0v128"/><path id="XMLID_1235_" d="m8 0v128"/><path id="XMLID_1234_" d="m4 0v128"/></g></g><g id="Layer_2" display="none"/><g id="Layer_3"><g id="XMLID_1924_" fill="none" stroke-miterlimit="10" stroke-width="3"><path id="XMLID_2080_" d="m46.1 101.6h-15.3c-12.1 0-21.9 9.8-21.9 21.9h110.2c0-12.1-9.8-21.9-21.9-21.9h-13.8" stroke="#475ca9"/><g stroke-linecap="round"><path id="XMLID_2156_" d="m45.2 85v15.8l19.3 16.7 18.3-15.3v-17.3" stroke="#475ca9"/><path id="XMLID_2084_" d="m33.6 37.4 56.9-.8" stroke="#000"/><path id="XMLID_1763_" d="m24.7 42.5h-2c-1.5 0-2.8 1.3-2.8 2.8v5.9c0 1.5 1.3 2.8 2.8 2.8h2" stroke="#ec3794"/><path id="XMLID_1843_" d="m19.9 46.6-3.6.8c-2.8.6-7.4 3.1-7.4 6v19.4c0 2.6 1 5.2 2.9 7 2.5 2.5 5.9 3.9 9.5 3.9 2.4 0 4.4 2 4.4 4.4v26.8" stroke="#ec3794"/></g><g id="XMLID_1762_"><path id="XMLID_4046_" d="m98.2 36.4c-1.3.3-6.5 1.3-11.9-1.2-6.5-3-8.4-8.8-8.7-9.7-.7 1.6-2.2 4.4-5.1 6.9-2.5 2.2-5 3.3-6.6 4-10.9 0-21.8 0-32.7 0-4.3-3.2-7.2-6.4-9.1-8.8-2.3-2.9-4.8-6.2-6.2-11.3-.2-1-.4-1.8-.5-2.3h15.3c1.5-1.2 16.6-12.7 35.4-8.6 16.8 3.7 29.5 13.3 30.1 31z" stroke="#475ca9"/><path id="XMLID_2081_" d="m98 61.5c-1 4-3.2 10.8-8.8 17.3-9.2 10.8-21.2 13.5-25 14.2-4-.7-17.4-3.4-26.8-15.4-4.4-5.5-6.4-11-7.4-14.8" stroke="#475ca9" stroke-linecap="round"/><g stroke="#ec3794"><path id="XMLID_2078_" d="m34 37.1h60c3.6 0 6.6 3 6.6 6.6v11.5c0 5.2-4.2 9.5-9.4 9.5h-4.9c-2.2 0-4-1.8-4-4 0-1.6-1.3-2.9-2.9-2.9h-30.8c-1.6 0-2.9 1.3-2.9 2.9 0 2.2-1.8 4-4 4h-5.1c-5.1 0-9.1-4.1-9.1-9.2v-11.8c-.1-3.6 2.9-6.6 6.5-6.6z" stroke-linecap="round"/><path id="XMLID_1844_" d="m39.1 49.5h44.1"/><path id="XMLID_1845_" d="m87.6 49.5h6.8"/></g></g></g></g></svg>